<svg id="logo" xmlns="http://www.w3.org/2000/svg" xmlns:xlink="http://www.w3.org/1999/xlink" width="230" height="49" viewBox="0 0 230 49">
  <defs>
    <radialGradient id="radial-gradient" cx="0.5" cy="0.5" r="0.5" gradientUnits="objectBoundingBox">
      <stop offset="0" stop-color="#fff"/>
      <stop offset="0.337" stop-color="#fdfefe"/>
      <stop offset="0.496" stop-color="#f5f9fc"/>
      <stop offset="0.618" stop-color="#e8f1f9"/>
      <stop offset="0.722" stop-color="#d6e5f4"/>
      <stop offset="0.813" stop-color="#bed6ee"/>
      <stop offset="0.896" stop-color="#a1c4e6"/>
      <stop offset="0.971" stop-color="#7eafdd"/>
      <stop offset="1" stop-color="#6fa5d9"/>
    </radialGradient>
    <radialGradient id="radial-gradient-2" cx="0.489" cy="0.785" r="0.599" gradientUnits="objectBoundingBox">
      <stop offset="0.012" stop-color="#fff"/>
      <stop offset="0.024" stop-color="#fef6f8"/>
      <stop offset="0.107" stop-color="#f8bdc9"/>
      <stop offset="0.192" stop-color="#f38b9f"/>
      <stop offset="0.278" stop-color="#ef607c"/>
      <stop offset="0.364" stop-color="#eb3d60"/>
      <stop offset="0.451" stop-color="#e92249"/>
      <stop offset="0.539" stop-color="#e70f3a"/>
      <stop offset="0.629" stop-color="#e50430"/>
      <stop offset="0.724" stop-color="#e5002d"/>
    </radialGradient>
    <radialGradient id="radial-gradient-3" cx="0.5" cy="0.5" r="0.5" gradientUnits="objectBoundingBox">
      <stop offset="0" stop-color="#fff"/>
      <stop offset="0.041" stop-color="#fdedf0"/>
      <stop offset="0.196" stop-color="#f7afbd"/>
      <stop offset="0.349" stop-color="#f17a91"/>
      <stop offset="0.497" stop-color="#ed4e6d"/>
      <stop offset="0.639" stop-color="#e92c51"/>
      <stop offset="0.773" stop-color="#e7143d"/>
      <stop offset="0.897" stop-color="#e60531"/>
      <stop offset="1" stop-color="#e5002d"/>
    </radialGradient>
  </defs>
  <g id="logo_white" transform="translate(0 0)">
    <path id="Path" d="M47,23.5A23.5,23.5,0,1,1,23.5,0,23.5,23.5,0,0,1,47,23.5Z" transform="translate(1 1)" fill="#fff"/>
    <path id="Path-2" data-name="Path" d="M49,24.5A24.5,24.5,0,1,1,24.5,0,24.5,24.5,0,0,1,49,24.5Z" fill="url(#radial-gradient)"/>
    <path id="Path-3" data-name="Path" d="M17.952,0,0,17.2,13.1,31l7.028-5.8,7.77,5.568L41,17.68,23.051,0V4.849S29.6,6.555,29.6,14.788c0,5.077-5.1,6.04-5.1,6.04s1.95-7.977-4.374-7.977c-6.29,0-3.635,7.5-3.635,7.5s-4.848-.979-4.848-6.777c0-5.816,5.352-8.486,6.554-8.486L17.952,0Z" transform="translate(4 8)" fill="url(#radial-gradient-2)"/>
    <path id="Path-4" data-name="Path" d="M5.5,11A5.5,5.5,0,1,0,1.61,9.39,5.5,5.5,0,0,0,5.5,11Z" transform="translate(19 19)" fill="url(#radial-gradient-3)"/>
    <path id="Shape" d="M102.709,33l.424-1.8h.549L103.1,33Zm-7.428-1.615a2.688,2.688,0,0,1-.668-1.887,2.871,2.871,0,0,1,.732-2.017,2.46,2.46,0,0,1,1.9-.8,2.96,2.96,0,0,1,1.216.218v.624a2.475,2.475,0,0,0-1.23-.312,1.855,1.855,0,0,0-1.471.632,2.379,2.379,0,0,0-.55,1.623A2.259,2.259,0,0,0,95.725,31a1.737,1.737,0,0,0,1.382.594,2.534,2.534,0,0,0,1.356-.354l0,.565a2.948,2.948,0,0,1-1.427.312A2.264,2.264,0,0,1,95.281,31.386Zm-20.1-1.391V26.769h.569v3.185q0,1.639,1.366,1.64,1.318,0,1.318-1.582V26.769H79v3.144q0,2.2-1.954,2.2Q75.178,32.117,75.177,29.994Zm-53.107,0V26.769h.568v3.185q0,1.639,1.367,1.64,1.316,0,1.317-1.582V26.769h.569v3.144q0,2.2-1.955,2.2Q22.071,32.117,22.07,29.994Zm-17.928,0V26.769H4.71v3.185q0,1.639,1.367,1.64,1.316,0,1.317-1.582V26.769h.568v3.144q0,2.2-1.955,2.2Q4.144,32.117,4.142,29.994Zm159.943,1.378a2.769,2.769,0,0,1-.663-1.912,2.937,2.937,0,0,1,.675-2.022,2.345,2.345,0,0,1,1.831-.758,2.2,2.2,0,0,1,1.725.74,2.79,2.79,0,0,1,.652,1.908,3,3,0,0,1-.66,2.024,2.272,2.272,0,0,1-1.8.763A2.247,2.247,0,0,1,164.084,31.372Zm.445-3.539a2.409,2.409,0,0,0-.511,1.575,2.442,2.442,0,0,0,.5,1.567,1.612,1.612,0,0,0,1.324.62,1.715,1.715,0,0,0,1.38-.587,2.413,2.413,0,0,0,.492-1.591,2.514,2.514,0,0,0-.475-1.624,1.653,1.653,0,0,0-1.35-.583A1.672,1.672,0,0,0,164.53,27.833ZM140.8,31.372a2.773,2.773,0,0,1-.663-1.912,2.938,2.938,0,0,1,.676-2.022,2.343,2.343,0,0,1,1.831-.758,2.2,2.2,0,0,1,1.724.74,2.793,2.793,0,0,1,.652,1.908,3,3,0,0,1-.66,2.024,2.277,2.277,0,0,1-1.8.763A2.247,2.247,0,0,1,140.8,31.372Zm.445-3.539a2.413,2.413,0,0,0-.51,1.575,2.447,2.447,0,0,0,.495,1.567,1.61,1.61,0,0,0,1.324.62,1.714,1.714,0,0,0,1.38-.587,2.409,2.409,0,0,0,.493-1.591,2.517,2.517,0,0,0-.476-1.624,1.652,1.652,0,0,0-1.349-.583A1.67,1.67,0,0,0,141.246,27.833ZM52.515,31.372a2.772,2.772,0,0,1-.664-1.912,2.938,2.938,0,0,1,.676-2.022,2.345,2.345,0,0,1,1.831-.758,2.2,2.2,0,0,1,1.724.74,2.788,2.788,0,0,1,.653,1.908,3,3,0,0,1-.66,2.024,2.277,2.277,0,0,1-1.8.763A2.244,2.244,0,0,1,52.515,31.372Zm.445-3.539a2.413,2.413,0,0,0-.51,1.575,2.447,2.447,0,0,0,.495,1.567,1.61,1.61,0,0,0,1.324.62,1.717,1.717,0,0,0,1.381-.587,2.411,2.411,0,0,0,.492-1.591,2.514,2.514,0,0,0-.476-1.624,1.649,1.649,0,0,0-1.348-.583A1.673,1.673,0,0,0,52.96,27.833ZM29.231,31.372a2.773,2.773,0,0,1-.663-1.912,2.938,2.938,0,0,1,.676-2.022,2.345,2.345,0,0,1,1.831-.758,2.2,2.2,0,0,1,1.724.74,2.79,2.79,0,0,1,.653,1.908,3,3,0,0,1-.66,2.024,2.273,2.273,0,0,1-1.8.763A2.247,2.247,0,0,1,29.231,31.372Zm.446-3.539a2.413,2.413,0,0,0-.51,1.575,2.447,2.447,0,0,0,.5,1.567,1.614,1.614,0,0,0,1.325.62,1.713,1.713,0,0,0,1.379-.587,2.412,2.412,0,0,0,.494-1.591,2.512,2.512,0,0,0-.477-1.624,1.649,1.649,0,0,0-1.348-.583A1.673,1.673,0,0,0,29.677,27.833ZM122.9,32.027a1.6,1.6,0,0,1-.592-.215v-.694h0v0a1.7,1.7,0,0,0,.625.333,2.456,2.456,0,0,0,.757.133c.754,0,1.129-.277,1.129-.834a.754.754,0,0,0-.117-.418,1.1,1.1,0,0,0-.316-.318q-.2-.135-.784-.44a3.073,3.073,0,0,1-1.066-.765,1.271,1.271,0,0,1-.224-.737,1.206,1.206,0,0,1,.508-1.015,2.077,2.077,0,0,1,1.277-.381,2.325,2.325,0,0,1,1.1.188v.669a2,2,0,0,0-1.173-.319,1.391,1.391,0,0,0-.8.213.678.678,0,0,0-.311.594.768.768,0,0,0,.108.413,1.027,1.027,0,0,0,.3.305,7.563,7.563,0,0,0,.728.4,3.388,3.388,0,0,1,1.066.749,1.241,1.241,0,0,1,.3.816,1.225,1.225,0,0,1-.481,1.039,2.18,2.18,0,0,1-1.347.366A3.484,3.484,0,0,1,122.9,32.027Zm-51.225,0a1.608,1.608,0,0,1-.593-.215v-.694h0v0a1.7,1.7,0,0,0,.626.333,2.45,2.45,0,0,0,.756.133c.755,0,1.13-.277,1.13-.834a.754.754,0,0,0-.117-.418,1.092,1.092,0,0,0-.315-.318q-.2-.135-.785-.44a3.083,3.083,0,0,1-1.066-.765,1.271,1.271,0,0,1-.224-.737,1.2,1.2,0,0,1,.508-1.015,2.074,2.074,0,0,1,1.276-.381,2.332,2.332,0,0,1,1.1.188v.669a2,2,0,0,0-1.174-.319,1.388,1.388,0,0,0-.8.213.676.676,0,0,0-.311.594.768.768,0,0,0,.108.413,1.035,1.035,0,0,0,.3.305,7.68,7.68,0,0,0,.728.4,3.377,3.377,0,0,1,1.066.749,1.241,1.241,0,0,1,.3.816,1.225,1.225,0,0,1-.482,1.039,2.175,2.175,0,0,1-1.346.366A3.476,3.476,0,0,1,71.676,32.027Zm98.224,0h-.566V26.77h1.525a1.663,1.663,0,0,1,1.133.371,1.308,1.308,0,0,1,.419,1.028,1.385,1.385,0,0,1-1.146,1.417V29.6a1.062,1.062,0,0,1,.353.247,4.657,4.657,0,0,1,.417.6L173,32.027l-.681,0-.871-1.481a1.891,1.891,0,0,0-.5-.623.954.954,0,0,0-.512-.149H169.9v2.251h0Zm0-2.789h.847a1.087,1.087,0,0,0,.769-.28.978.978,0,0,0,.3-.744.858.858,0,0,0-.272-.67,1.143,1.143,0,0,0-.789-.241H169.9Zm-15.689,2.788L156.2,26.77h.579l2,5.257-.631,0-.561-1.493h-2.219l-.526,1.493h-.635Zm2.181-4.3-.818,2.272H157.4l-.829-2.272a2.536,2.536,0,0,1-.076-.346h-.016A1.631,1.631,0,0,1,156.392,27.733Zm-20.636,4.3V30.092l-1.669-3.324h.652l1.177,2.4c.017.037.06.141.127.316h.011a2.009,2.009,0,0,1,.14-.316l1.238-2.4h.6l-1.707,3.315v1.946Zm-4.878,0h-.567V26.77h1.525a1.661,1.661,0,0,1,1.132.371,1.306,1.306,0,0,1,.42,1.028,1.386,1.386,0,0,1-1.147,1.417V29.6a1.075,1.075,0,0,1,.354.247,4.527,4.527,0,0,1,.416.6l.965,1.577-.681,0-.87-1.481a1.891,1.891,0,0,0-.5-.623.954.954,0,0,0-.512-.149h-.531v2.251h0Zm0-2.789h.846a1.084,1.084,0,0,0,.769-.28.977.977,0,0,0,.3-.744.858.858,0,0,0-.272-.67,1.157,1.157,0,0,0-.788-.241h-.852ZM115.1,32.029v-5.26h.756l2.628,4.2c.132.218.2.337.211.361h.014a6.289,6.289,0,0,1-.037-.792V26.769h.572v5.26h-.718l-2.7-4.248a2.409,2.409,0,0,1-.16-.315h-.02a5.581,5.581,0,0,1,.027.706v3.857Zm-25.654,0v-5.26H90.2l2.627,4.2a4.147,4.147,0,0,1,.211.361h.014a5.969,5.969,0,0,1-.037-.792V26.769h.572v5.26h-.717l-2.7-4.248a2.524,2.524,0,0,1-.16-.315h-.019a5.839,5.839,0,0,1,.026.706v3.857Zm-4.712,0H84.1L86.09,26.77h.578l2,5.257-.631,0-.56-1.493H85.258l-.526,1.493h0Zm1.548-4.3-.819,2.272h1.823l-.829-2.272a2.674,2.674,0,0,1-.077-.346h-.015A1.687,1.687,0,0,1,86.279,27.733Zm-5.407,4.3h-.567V26.77h1.526a1.664,1.664,0,0,1,1.132.371,1.306,1.306,0,0,1,.42,1.028,1.386,1.386,0,0,1-1.147,1.417V29.6a1.062,1.062,0,0,1,.353.247,4.657,4.657,0,0,1,.417.6l.965,1.577-.681,0-.87-1.481a1.9,1.9,0,0,0-.5-.623.954.954,0,0,0-.512-.149h-.531v2.251h0Zm0-2.789h.845a1.085,1.085,0,0,0,.769-.28.978.978,0,0,0,.3-.744.857.857,0,0,0-.271-.67,1.162,1.162,0,0,0-.788-.241h-.852ZM65.816,32.029v-5.26h.756l2.627,4.2a3.993,3.993,0,0,1,.211.361h.014a6.291,6.291,0,0,1-.037-.792V26.769h.572v5.26h-.717l-2.7-4.248a2.4,2.4,0,0,1-.159-.315h-.02a5.648,5.648,0,0,1,.026.706v3.857Zm-7.484,0h-.567V26.77h1.525a1.666,1.666,0,0,1,1.133.371,1.309,1.309,0,0,1,.42,1.028A1.386,1.386,0,0,1,59.7,29.585V29.6a1.075,1.075,0,0,1,.353.247,4.6,4.6,0,0,1,.416.6l.965,1.577-.681,0-.869-1.481a1.9,1.9,0,0,0-.5-.623.946.946,0,0,0-.508-.149h-.534v2.251h0Zm0-2.789h.845a1.087,1.087,0,0,0,.769-.28.977.977,0,0,0,.3-.744.86.86,0,0,0-.271-.67,1.159,1.159,0,0,0-.788-.241h-.853ZM43.277,32.029h-.634l1.991-5.259h.58l2,5.257-.631,0-.562-1.493H43.8l-.526,1.493h0Zm1.546-4.3L44,30.005h1.824L45,27.733a2.506,2.506,0,0,1-.076-.346h-.016A1.715,1.715,0,0,1,44.823,27.733Zm-27.4,4.3h-.634L18.78,26.77h.579l2,5.257-.631,0-.561-1.493H17.95l-.526,1.493h0Zm1.546-4.3-.818,2.272h1.823l-.829-2.272a2.329,2.329,0,0,1-.076-.346h-.016A1.771,1.771,0,0,1,18.969,27.733Zm-9.133,4.3H9.269V26.77h1.526a1.661,1.661,0,0,1,1.132.371,1.3,1.3,0,0,1,.42,1.028A1.386,1.386,0,0,1,11.2,29.585V29.6a1.085,1.085,0,0,1,.354.247,4.527,4.527,0,0,1,.416.6l.965,1.577-.681,0-.869-1.481a1.9,1.9,0,0,0-.5-.623.946.946,0,0,0-.509-.149H9.837v2.251h0Zm0-2.789h.845a1.081,1.081,0,0,0,.769-.28.975.975,0,0,0,.3-.744.856.856,0,0,0-.271-.67,1.154,1.154,0,0,0-.788-.241H9.837Zm141.517,2.788v-5.26h.568V31.5h2.092v.529Zm-5.3,0v-5.26h2.6V27.3h-2.036v1.854H148.5v.53h-1.885v2.346Zm-18.627,0V27.3h-1.49v-.529h3.555l0,.529h-1.495v4.73Zm-6.814,0v-5.26h.568v5.26Zm-7.457,0v-5.26h.568v5.26Zm-1.939,0V28.477c0-.27.017-.608.053-1.015h-.016a2.956,2.956,0,0,1-.154.5l-1.806,4.071h-.254l-1.8-4.044a3.186,3.186,0,0,1-.15-.523h-.016c.02.186.03.52.03,1v3.562h-.555v-5.26h.743l1.621,3.7a5.609,5.609,0,0,1,.241.622h.023c.067-.184.15-.4.25-.639l1.658-3.687h.7v5.26Zm-11.686,0v-5.26h2.6v.53h-2.036v1.79h1.882v.529h-1.882V31.5h2.153v.529Zm-35.656,0v-5.26h.568v5.26Zm-24.087,0v-5.26h.569V31.5h2.092v.529Zm-5.3,0v-5.26h2.6V27.3H35.048v1.854h1.885v.53H35.048v2.346Zm-20.816,0v-5.26h2.6v.53H14.232v1.79h1.881v.529H14.232V31.5h2.153v.529Zm145.893,0V26.77H161a1.572,1.572,0,0,1,1.04.33,1.083,1.083,0,0,1,.393.872,1.315,1.315,0,0,1-.232.773,1.281,1.281,0,0,1-.657.479v.014a1.214,1.214,0,0,1,1.151,1.283,1.39,1.39,0,0,1-.473,1.087,1.744,1.744,0,0,1-1.194.419Zm.567-.535h.84a1.256,1.256,0,0,0,.838-.259.9.9,0,0,0,.3-.718c0-.628-.429-.947-1.276-.947l-.7,0Zm0-2.46h.629a1.192,1.192,0,0,0,.8-.249.878.878,0,0,0,.287-.7c0-.518-.337-.781-1-.781h-.715ZM47.988,32.027V26.77h1.447a1.568,1.568,0,0,1,1.04.33,1.085,1.085,0,0,1,.394.872,1.319,1.319,0,0,1-.232.773,1.267,1.267,0,0,1-.657.479v.014a1.212,1.212,0,0,1,1.15,1.283,1.386,1.386,0,0,1-.472,1.087,1.744,1.744,0,0,1-1.194.419Zm.567-.535h.84a1.256,1.256,0,0,0,.838-.259.9.9,0,0,0,.3-.718c0-.628-.429-.947-1.275-.947l-.7,0Zm0-2.46h.629a1.191,1.191,0,0,0,.8-.249.876.876,0,0,0,.287-.7c0-.518-.338-.781-1-.781h-.715ZM0,32.027V26.77H1.446a1.572,1.572,0,0,1,1.04.33,1.08,1.08,0,0,1,.394.872,1.319,1.319,0,0,1-.232.773,1.285,1.285,0,0,1-.657.479v.014a1.268,1.268,0,0,1,.835.393,1.269,1.269,0,0,1,.315.889,1.392,1.392,0,0,1-.473,1.087,1.745,1.745,0,0,1-1.2.419Zm.567-.535h.84a1.256,1.256,0,0,0,.838-.259.9.9,0,0,0,.3-.718c0-.628-.429-.947-1.276-.947l-.7,0Zm0-2.46H1.2a1.2,1.2,0,0,0,.8-.249.878.878,0,0,0,.287-.7c0-.518-.337-.781-1-.781H.568Zm154.154-9.12-1.571-1.292c1.554-2.321,2.343-5.885,2.343-10.593V.826h15.926V6.28H157.44V8.007H171.9c0,1.792-.077,3.913-.225,6.307a22.386,22.386,0,0,1-.454,4.188,2.089,2.089,0,0,1-.781.913,2.472,2.472,0,0,1-1.4.368c-.871,0-1.695-.022-2.449-.065l-.461-1.891c.744.058,1.643.086,2.674.086.383,0,.618-.249.7-.743s.227-2.975.434-7.361H157.418a20.589,20.589,0,0,1-2.7,10.1h0ZM157.44,4.52H169.4V2.608H157.44ZM143.247,18.666a15.189,15.189,0,0,0,3.326-4.975l1.732.51-.684,1.532a20.26,20.26,0,0,1,3.177,2.782l-1.3,1.271a24.548,24.548,0,0,0-2.718-2.542,22.447,22.447,0,0,1-2.042,2.587Zm-77.235-.791q5.048-.316,7.2-3.738H67.371V12.354h6.567a12.968,12.968,0,0,0,.353-1.76h1.948a16.416,16.416,0,0,1-.331,1.76h7.625a28.711,28.711,0,0,1-.374,3.77,5.591,5.591,0,0,1-.808,2.63,4.442,4.442,0,0,1-.882.679,10.837,10.837,0,0,1-3.166.234q-.657,0-1.315-.022l-.6-1.813q1.251.045,3.679.044a.9.9,0,0,0,.877-.533,14.682,14.682,0,0,0,.556-3.2H75.381q-1.764,4.4-8.279,5.671ZM.3,17.875q5.049-.316,7.2-3.738H1.657V12.354H8.224a12.958,12.958,0,0,0,.354-1.76h1.948a16.419,16.419,0,0,1-.331,1.76h7.624a28.711,28.711,0,0,1-.374,3.77,5.581,5.581,0,0,1-.808,2.63,4.442,4.442,0,0,1-.882.679,10.837,10.837,0,0,1-3.166.234q-.657,0-1.315-.022l-.6-1.813q1.251.045,3.679.044a.9.9,0,0,0,.877-.533,14.682,14.682,0,0,0,.556-3.2H9.667q-1.764,4.4-8.279,5.671Zm136.264.747a13.418,13.418,0,0,0,3.7-5.009l1.754.522a13.191,13.191,0,0,1-.546,1.238,19.984,19.984,0,0,1,2.3,1.934l-1.229,1.358a18.074,18.074,0,0,0-1.948-1.8,19.043,19.043,0,0,1-2.493,2.944Zm-104.121.27A24.556,24.556,0,0,0,35.146,6.2h-1.9V4.355h1.948q.054-2.738.021-4.064h1.9q0,2.1-.064,4.064l3.7,0q-.022,4.651-.2,8.959a38.5,38.5,0,0,1-.374,4.982,1.8,1.8,0,0,1-.738,1.038,3.281,3.281,0,0,1-1.765.363q-.567,0-1.166-.054l-.546-1.891c.557.043,1,.065,1.327.065q.953,0,1.112-.245a23.786,23.786,0,0,0,.386-3.976q.225-3.733.15-7.393H37.05Q37,14.318,34.13,19.741Zm-10.086.828h0l-.4-1.608,4.706-.489V15.949h-3.83V14.4h3.83v-1.25h-3.83V6.606h3.83V5.345h-4.4V3.715h4.4V2.444c-.951.124-2.107.222-3.434.294l-.482-1.554A54.349,54.349,0,0,0,31.658.131l.75,1.423c-1.043.248-2.385.481-3.99.7V3.715h4.236l0,1.63H28.418V6.606h3.775v6.54H28.418V14.4h3.775V15.95H28.418v1.412A35.8,35.8,0,0,0,32.3,16.8l.085,1.586c-3.309.556-6.683,1.005-10.031,1.337Zm6.064-8.041h2V10.551h-2Zm-3.808,0h2.054V10.551H24.61Zm3.808-2.488h2V8.029h-2ZM24.61,9.17h2.054V8.029H24.61ZM131.962,19.622V.576h5.39l0,1.966q0,.143-.385,1.663a27.577,27.577,0,0,1-.909,2.912A9.976,9.976,0,0,1,137.5,11.93a3.332,3.332,0,0,1-.716,2.478,2.6,2.6,0,0,1-1.84.663,4.025,4.025,0,0,1-.417-.022l-.439-2.032a4.057,4.057,0,0,0,.77.087q.856,0,.856-1.141a9.03,9.03,0,0,0-1.626-4.825,25.646,25.646,0,0,0,1.466-4.672h-1.732V19.622Zm-9.3,0h-1.978V11.973h-6V10.061h6v-2.1h-4.813V.8h11.5v7.16h-4.706v2.1h5.957v1.911h-5.957v7.648h0ZM117.877,6.053h7.5V2.695h-7.5Zm-6.17,13.569V8.388q-.655,1.022-1.4,1.977l-1.016-2.043A28.636,28.636,0,0,0,113.215.109l1.839.424q-.421,1.347-.909,2.673L113.7,4.357V19.622ZM56.023,19.6V.717H62.7V2.51q-.732,2.88-1.722,5.683a10.786,10.786,0,0,1,1.98,5.671,4,4,0,0,1-.444,2.027,2.23,2.23,0,0,1-1.074,1,7.434,7.434,0,0,1-2.546.174l-.546-1.912q.887.086,1.841.086a.805.805,0,0,0,.619-.266,2.035,2.035,0,0,0,.246-1.244A8.76,8.76,0,0,0,59,8.539a56.222,56.222,0,0,0,1.84-6.03H57.863V19.6Zm-8.878-.021H45.2V11.4h8.76v8.18H52.077v-1.26H47.146v1.26h0Zm0-3.043h4.931V13.2H47.146Zm76.581-2.673,1.691-.956a32.5,32.5,0,0,1,3.369,5.269l-1.776,1A31.953,31.953,0,0,0,123.727,13.864Zm-9.37,3.988a21.978,21.978,0,0,0,3.561-4.943l1.734.89a21.441,21.441,0,0,1-3.659,5.269Zm-7.539,1.021H87.693v-2.01h8.546V3.054h-7.6V.978H105.94V3.054h-7.6V16.862h8.483v2.01Zm60.74-2.1h-8.695V11.235h8.7v5.54h0Zm-6.728-1.782h4.8v-2h-4.8Zm-11.06-1.685h-5.08V7.584h5.08v5.724h0Zm-3.239-1.781h1.4V9.322h-1.4Zm-2.975,1.781h-4.973V7.584h4.974v5.724h0ZM140.4,11.528h1.357V9.322H140.4Zm-57.9-.044V10.04H68.314v1.444H66.378V8.258H84.432v3.226Zm-65.714,0V10.04H2.6v1.444H.662V8.258H18.717v3.226Zm38.332-1.63H43.969V8.105h2.9a19.366,19.366,0,0,0-1.315-3.14L47,4.074H44.406V2.292h4.343A10.19,10.19,0,0,0,47.829.51L49.755,0A12.275,12.275,0,0,1,50.8,2.292H54.75V4.074H52.537l1.38.782c-.316.9-.766,1.989-1.337,3.249h2.546V9.853h0ZM48.836,8.105h1.69a22.257,22.257,0,0,0,1.615-4.031H47.285A29.113,29.113,0,0,1,48.836,8.105ZM75.254,6.368a6.379,6.379,0,0,0,3.134-1.82q.941-1.146.878-4.395h1.817q0,.7-.118,2.074a12.661,12.661,0,0,0,2.5-1.651l1.254,1.272A15.411,15.411,0,0,1,80.645,4.1l-.043.131a19.283,19.283,0,0,1,4.043,2.248l-1.156,1.38a21.331,21.331,0,0,0-3.765-2.119,7.071,7.071,0,0,1-3.53,2.184Zm-4.577-.718A8.48,8.48,0,0,1,67.254,7.9L66.163,6.367a7.914,7.914,0,0,0,2.476-1.3,3.425,3.425,0,0,0,1.337-1.939,14.231,14.231,0,0,0,.24-2.95h1.818q0,.967-.064,1.739A7.356,7.356,0,0,0,73.939.6l.984,1.358A14.138,14.138,0,0,1,71.683,3.89l-.065.272a23.64,23.64,0,0,1,3.2,2.249l-1.048,1.51A24.183,24.183,0,0,0,70.676,5.649ZM9.539,6.368a6.379,6.379,0,0,0,3.134-1.82Q13.615,3.4,13.55.153h1.817q0,.7-.118,2.074a12.661,12.661,0,0,0,2.5-1.651l1.254,1.272A15.4,15.4,0,0,1,14.931,4.1l-.043.131a19.283,19.283,0,0,1,4.043,2.248l-1.156,1.38A21.331,21.331,0,0,0,14.01,5.737a7.063,7.063,0,0,1-3.53,2.184ZM4.962,5.649A8.48,8.48,0,0,1,1.54,7.9L.448,6.367a7.914,7.914,0,0,0,2.476-1.3A3.425,3.425,0,0,0,4.261,3.124,14.231,14.231,0,0,0,4.5.174H6.32q0,.967-.064,1.739A7.356,7.356,0,0,0,8.224.6l.984,1.358A14.137,14.137,0,0,1,5.969,3.89L5.9,4.162A23.6,23.6,0,0,1,9.1,6.411L8.054,7.921A24.183,24.183,0,0,0,4.962,5.649Zm144.937,1a21.725,21.725,0,0,1-2.3-1.358V6.607h-6.984V5.227a23.231,23.231,0,0,1-2.322,1.358l-1.07-1.6A18.366,18.366,0,0,0,143.706.044l1.925.6a3.5,3.5,0,0,1-.277.4,16.525,16.525,0,0,0,5.584,3.944L149.9,6.649h0Zm-8.6-1.868h5.5a17.952,17.952,0,0,1-2.674-2.358A23.848,23.848,0,0,1,141.3,4.782ZM75.512,1.293,77.053.619a15.894,15.894,0,0,1,1.4,3.075l-1.529.739A12.468,12.468,0,0,0,75.512,1.293ZM9.8,1.293,11.338.619a15.894,15.894,0,0,1,1.4,3.075l-1.529.739A12.468,12.468,0,0,0,9.8,1.293Zm56.61.087,1.444-.74a18.144,18.144,0,0,1,1.318,3.054l-1.52.619A16.454,16.454,0,0,0,66.407,1.381Zm-65.714,0L2.137.641A18.145,18.145,0,0,1,3.454,3.695l-1.52.619A16.454,16.454,0,0,0,.693,1.381Z" transform="translate(57 8)"/>
  </g>
</svg>
