<svg id="Group_8" data-name="Group 8" xmlns="http://www.w3.org/2000/svg" width="426" height="44" viewBox="0 0 426 44">
  <text id="_" data-name="『" transform="translate(0 34)" font-size="32" font-family="GenJyuuGothic-Heavy, Gen Jyuu Gothic" font-weight="800"><tspan x="0" y="0" xml:space="preserve"> 『</tspan></text>
  <text id="_2" data-name="』" transform="translate(386 34)" font-size="32" font-family="GenJyuuGothic-Heavy, Gen Jyuu Gothic" font-weight="800"><tspan x="0" y="0" xml:space="preserve"> 』</tspan></text>
  <rect id="Rectangle" width="336" height="15" transform="translate(50 29)" fill="#ffb3b3"/>
  <path id="看看他們怎麼做_" data-name="看看他們怎麼做？" d="M23.125-8.781q.25,0,.25-.219v-.906a.221.221,0,0,0-.25-.25H12q-.219,0-.219.25V-9A.193.193,0,0,0,12-8.781ZM11.781-1.375A.193.193,0,0,0,12-1.156H23.125q.25,0,.25-.219v-1a.221.221,0,0,0-.25-.25H12q-.219,0-.219.25ZM23.125-5q.25,0,.25-.219v-.937a.221.221,0,0,0-.25-.25H12q-.219,0-.219.25v.938A.193.193,0,0,0,12-5ZM29.75-16.906a1.4,1.4,0,0,1,.469,1.063,1.422,1.422,0,0,1-.453,1.063,1.463,1.463,0,0,1-1.047.438H13.188a.382.382,0,0,0-.344.219q-.125.219-.5.906a.133.133,0,0,0,0,.125.126.126,0,0,0,.125.063H25.344a1.757,1.757,0,0,1,1.313.547,1.8,1.8,0,0,1,.531,1.3V1.031a1.783,1.783,0,0,1-.531,1.313,1.783,1.783,0,0,1-1.312.531h-.969a.961.961,0,0,1-.7-.3,1,1,0,0,1-.3-.734q0-.125-.156-.125H11.906a.11.11,0,0,0-.125.125A1.014,1.014,0,0,1,10.75,2.875H9.938a1.746,1.746,0,0,1-1.281-.531,1.746,1.746,0,0,1-.531-1.281V-7.406A.1.1,0,0,0,8.063-7.5a.062.062,0,0,0-.094.031A23.927,23.927,0,0,1,4.75-4.812a1.771,1.771,0,0,1-1,.313,2.277,2.277,0,0,1-.375-.031,2.116,2.116,0,0,1-1.25-.781A1.024,1.024,0,0,0,2-5.469a1.661,1.661,0,0,1-.344-1,1.448,1.448,0,0,1,.031-.281,1.528,1.528,0,0,1,.688-1.094,21.425,21.425,0,0,0,6.094-6.281.1.1,0,0,0,.016-.141.132.132,0,0,0-.109-.078H3.281a1.463,1.463,0,0,1-1.047-.437,1.422,1.422,0,0,1-.453-1.062,1.422,1.422,0,0,1,.453-1.062,1.463,1.463,0,0,1,1.047-.437H9.969a.343.343,0,0,0,.344-.219q.125-.25.406-.937a.162.162,0,0,0-.016-.156.135.135,0,0,0-.109-.062H5.469a1.384,1.384,0,0,1-1.016-.422,1.384,1.384,0,0,1-.422-1.016,1.384,1.384,0,0,1,.422-1.016,1.384,1.384,0,0,1,1.016-.422h6.125a.289.289,0,0,0,.313-.219q.156-.562.25-.937a.253.253,0,0,0-.047-.156.165.165,0,0,0-.141-.062q-2.875.094-5.687.094H5.844a1.578,1.578,0,0,1-1.062-.406,2.15,2.15,0,0,1-.656-1.031,1.964,1.964,0,0,1-.031-.312,1.038,1.038,0,0,1,.219-.656.985.985,0,0,1,.844-.437A167.318,167.318,0,0,0,24.375-26.75a3.09,3.09,0,0,1,.438-.031,3.084,3.084,0,0,1,1.125.219,2.835,2.835,0,0,1,1.281.906,1,1,0,0,1,.25.625,1.18,1.18,0,0,1-.062.375.9.9,0,0,1-.781.625q-4.063.563-10,.875a.336.336,0,0,0-.312.25q-.094.406-.312,1.094a.127.127,0,0,0,.031.141.169.169,0,0,0,.125.078H27.031a1.384,1.384,0,0,1,1.016.422,1.384,1.384,0,0,1,.422,1.016,1.384,1.384,0,0,1-.422,1.016,1.384,1.384,0,0,1-1.016.422H15.156a.289.289,0,0,0-.312.219q-.187.437-.375.938a.162.162,0,0,0,.016.156.135.135,0,0,0,.109.063H28.719A1.411,1.411,0,0,1,29.75-16.906ZM60.525-8.781q.25,0,.25-.219v-.906a.221.221,0,0,0-.25-.25H49.4q-.219,0-.219.25V-9a.193.193,0,0,0,.219.219ZM49.181-1.375a.193.193,0,0,0,.219.219H60.525q.25,0,.25-.219v-1a.221.221,0,0,0-.25-.25H49.4q-.219,0-.219.25ZM60.525-5q.25,0,.25-.219v-.937a.221.221,0,0,0-.25-.25H49.4q-.219,0-.219.25v.938A.193.193,0,0,0,49.4-5ZM67.15-16.906a1.4,1.4,0,0,1,.469,1.063,1.422,1.422,0,0,1-.453,1.063,1.463,1.463,0,0,1-1.047.438H50.588a.382.382,0,0,0-.344.219q-.125.219-.5.906a.133.133,0,0,0,0,.125.126.126,0,0,0,.125.063H62.744a1.757,1.757,0,0,1,1.312.547,1.8,1.8,0,0,1,.531,1.3V1.031a1.783,1.783,0,0,1-.531,1.313,1.783,1.783,0,0,1-1.312.531h-.969a.961.961,0,0,1-.7-.3,1,1,0,0,1-.3-.734q0-.125-.156-.125H49.306a.11.11,0,0,0-.125.125A1.014,1.014,0,0,1,48.15,2.875h-.812a1.746,1.746,0,0,1-1.281-.531,1.746,1.746,0,0,1-.531-1.281V-7.406a.1.1,0,0,0-.062-.094.062.062,0,0,0-.094.031A23.927,23.927,0,0,1,42.15-4.812a1.771,1.771,0,0,1-1,.313,2.277,2.277,0,0,1-.375-.031,2.116,2.116,0,0,1-1.25-.781,1.024,1.024,0,0,0-.125-.156,1.661,1.661,0,0,1-.344-1,1.448,1.448,0,0,1,.031-.281,1.528,1.528,0,0,1,.688-1.094,21.425,21.425,0,0,0,6.094-6.281.1.1,0,0,0,.016-.141.132.132,0,0,0-.109-.078H40.681a1.463,1.463,0,0,1-1.047-.437,1.422,1.422,0,0,1-.453-1.062,1.422,1.422,0,0,1,.453-1.062,1.463,1.463,0,0,1,1.047-.437h6.688a.343.343,0,0,0,.344-.219q.125-.25.406-.937a.162.162,0,0,0-.016-.156.135.135,0,0,0-.109-.062H42.869a1.384,1.384,0,0,1-1.016-.422,1.384,1.384,0,0,1-.422-1.016,1.384,1.384,0,0,1,.422-1.016,1.384,1.384,0,0,1,1.016-.422h6.125a.289.289,0,0,0,.313-.219q.156-.562.25-.937a.253.253,0,0,0-.047-.156.165.165,0,0,0-.141-.062q-2.875.094-5.687.094h-.437a1.578,1.578,0,0,1-1.062-.406,2.15,2.15,0,0,1-.656-1.031,1.964,1.964,0,0,1-.031-.312,1.038,1.038,0,0,1,.219-.656.985.985,0,0,1,.844-.437A167.318,167.318,0,0,0,61.775-26.75a3.09,3.09,0,0,1,.438-.031,3.084,3.084,0,0,1,1.125.219,2.835,2.835,0,0,1,1.281.906,1,1,0,0,1,.25.625,1.18,1.18,0,0,1-.062.375.9.9,0,0,1-.781.625q-4.062.563-10,.875a.336.336,0,0,0-.312.25q-.094.406-.312,1.094a.127.127,0,0,0,.031.141.169.169,0,0,0,.125.078H64.431a1.384,1.384,0,0,1,1.016.422,1.384,1.384,0,0,1,.422,1.016,1.384,1.384,0,0,1-.422,1.016,1.384,1.384,0,0,1-1.016.422H52.556a.289.289,0,0,0-.312.219q-.187.437-.375.938a.162.162,0,0,0,.016.156.135.135,0,0,0,.109.063H66.119A1.411,1.411,0,0,1,67.15-16.906Zm14.806-8.375a1.939,1.939,0,0,1,.969-1.062,1.992,1.992,0,0,1,.844-.187,2.067,2.067,0,0,1,.594.094,1.715,1.715,0,0,1,1.031.906,1.607,1.607,0,0,1,.188.719,1.449,1.449,0,0,1-.156.656q-.969,2.312-2.156,4.531a.77.77,0,0,0-.125.438V.875a1.8,1.8,0,0,1-.531,1.3,1.757,1.757,0,0,1-1.312.547h-.094a1.772,1.772,0,0,1-1.3-.547,1.772,1.772,0,0,1-.547-1.3V-13.344q0-.031-.047-.062t-.078.031q-.344.438-.656.813a1.066,1.066,0,0,1-.875.438.59.59,0,0,1-.187-.031,1.159,1.159,0,0,1-.937-.687q-.156-.281-.312-.594a2.3,2.3,0,0,1-.344-1.219,1.162,1.162,0,0,1,.031-.281,2.761,2.761,0,0,1,.594-1.437A33.674,33.674,0,0,0,81.956-25.281ZM93.488-1.125h6.5a2.124,2.124,0,0,0,1.625-.516,4.062,4.062,0,0,0,.688-2.047,1.233,1.233,0,0,1,.656-.937,1.387,1.387,0,0,1,.625-.156,1.311,1.311,0,0,1,.531.125.24.24,0,0,1,.094.031,2.53,2.53,0,0,1,1.188,1,1.921,1.921,0,0,1,.313,1.031,2.277,2.277,0,0,1-.031.375,5.96,5.96,0,0,1-1.641,3.531,5.757,5.757,0,0,1-3.766,1H93.206q-3.406,0-4.641-1.172T87.331-3.312v-8.531a.135.135,0,0,0-.062-.109.162.162,0,0,0-.156-.016l-.469.156a1.649,1.649,0,0,1-.687.156,1.718,1.718,0,0,1-.719-.156,1.938,1.938,0,0,1-1.031-1,1.718,1.718,0,0,1-.156-.719,1.586,1.586,0,0,1,.156-.656,1.705,1.705,0,0,1,.969-.969l1.938-.75a.343.343,0,0,0,.219-.344v-5.469a1.772,1.772,0,0,1,.547-1.3,1.772,1.772,0,0,1,1.3-.547h.094a1.757,1.757,0,0,1,1.313.547,1.8,1.8,0,0,1,.531,1.3v3.969a.153.153,0,0,0,.078.141.141.141,0,0,0,.141.016l2.688-1a.343.343,0,0,0,.219-.344v-6.25a1.721,1.721,0,0,1,.516-1.266A1.7,1.7,0,0,1,96-26.969a1.7,1.7,0,0,1,1.25.516,1.721,1.721,0,0,1,.516,1.266v4.844a.153.153,0,0,0,.078.141.141.141,0,0,0,.141.016l2.875-1.062a1.223,1.223,0,0,0,.281-.156,1.991,1.991,0,0,1,1.313-.5,2.508,2.508,0,0,1,.938.188l.906.344a.557.557,0,0,1,.375.688.514.514,0,0,0-.031.156q-.031,9-.281,10.75a3.184,3.184,0,0,1-1.781,2.875,5.562,5.562,0,0,1-1.812.406h-.156a1.7,1.7,0,0,1-1.156-.437,2.33,2.33,0,0,1-.75-1.312,1.756,1.756,0,0,1-.031-.344,1.389,1.389,0,0,1,.25-.781,1.159,1.159,0,0,1,.969-.5h.187a.808.808,0,0,0,.531-.156,1.051,1.051,0,0,0,.281-.594q.156-.781.219-6.656a.132.132,0,0,0-.078-.109.141.141,0,0,0-.141-.016l-2.906,1.125a.321.321,0,0,0-.219.313v9.406a1.684,1.684,0,0,1-.516,1.234A1.7,1.7,0,0,1,96-4.812a1.7,1.7,0,0,1-1.25-.516,1.684,1.684,0,0,1-.516-1.234v-8a.132.132,0,0,0-.078-.109.141.141,0,0,0-.141-.016l-2.687,1.031a.321.321,0,0,0-.219.313V-3.312q0,1.438.422,1.813A3.282,3.282,0,0,0,93.488-1.125Zm34.931-21.156q0-.25-.219-.25h-2.156a.221.221,0,0,0-.25.25v1.344q0,.219.25.219H128.2a.193.193,0,0,0,.219-.219Zm-2.625,5.938a.221.221,0,0,0,.25.25H128.2q.219,0,.219-.25V-17.75a.193.193,0,0,0-.219-.219h-2.156q-.25,0-.25.219Zm3.656-9.062a1.757,1.757,0,0,1,1.313.547,1.8,1.8,0,0,1,.531,1.3v8.5a1.783,1.783,0,0,1-.531,1.313,1.783,1.783,0,0,1-1.312.531h-3.406a.221.221,0,0,0-.25.25V.938a1.684,1.684,0,0,1-.516,1.234,1.735,1.735,0,0,1-2.469,0,1.684,1.684,0,0,1-.516-1.234V-25.125q0-.031-.047-.031t-.047.031q-.969,2.75-2.031,5.094a1.177,1.177,0,0,0-.094.469V.938a1.746,1.746,0,0,1-.531,1.281,1.811,1.811,0,0,1-2.562,0A1.746,1.746,0,0,1,116.45.938V-13a.072.072,0,0,0-.047-.078.071.071,0,0,0-.078.016q-.344.531-.687,1a.95.95,0,0,1-.781.406.59.59,0,0,1-.187-.031,1.072,1.072,0,0,1-.875-.656q-.156-.375-.312-.719a3.092,3.092,0,0,1-.281-1.281,1.59,1.59,0,0,1,.031-.312,2.758,2.758,0,0,1,.563-1.5,35.862,35.862,0,0,0,4.625-9.156,1.814,1.814,0,0,1,.938-1.094,1.757,1.757,0,0,1,.844-.219,1.5,1.5,0,0,1,.531.094l1.219.344a.523.523,0,0,1,.359.281.5.5,0,0,1,.016.438.055.055,0,0,0,.063.063Zm6.313,9.063q0,.25.219.25h2.375a.221.221,0,0,0,.25-.25V-17.75q0-.219-.25-.219h-2.375a.193.193,0,0,0-.219.219Zm2.844-5.937a.221.221,0,0,0-.25-.25h-2.375q-.219,0-.219.25v1.344a.193.193,0,0,0,.219.219h2.375q.25,0,.25-.219Zm1.813-3.125a1.772,1.772,0,0,1,1.3.547,1.772,1.772,0,0,1,.547,1.3V-1.656a5.992,5.992,0,0,1-.391,2.438,2.477,2.477,0,0,1-1.359,1.25,12.6,12.6,0,0,1-4.5.656h-.031a2.111,2.111,0,0,1-1.344-.469,2.835,2.835,0,0,1-.906-1.281L133.669.75a1.586,1.586,0,0,1-.062-.437,1.173,1.173,0,0,1,.219-.687,1.108,1.108,0,0,1,.969-.5h1.469q.875,0,1.5-.031a.973.973,0,0,0,.656-.172.8.8,0,0,0,.188-.609V-12.969a.221.221,0,0,0-.25-.25h-3.781a1.8,1.8,0,0,1-1.3-.531,1.757,1.757,0,0,1-.547-1.312v-8.5a1.772,1.772,0,0,1,.547-1.3,1.772,1.772,0,0,1,1.3-.547Zm22.15,5.219q0-.219-.25-.219h-2.594a.349.349,0,0,0-.344.188,26.755,26.755,0,0,1-4,5.188,1.733,1.733,0,0,1-1.312.563A2,2,0,0,1,152.694-15q-.219-.187-.469-.406a1.407,1.407,0,0,1-.531-1.141,1.54,1.54,0,0,1,.5-1.172,21.6,21.6,0,0,0,5.344-7.719,2.222,2.222,0,0,1,1-1.094,1.859,1.859,0,0,1,.938-.25,4.027,4.027,0,0,1,.5.031l.406.125a1.509,1.509,0,0,1,1.063.813,1.481,1.481,0,0,1,.188.719,1.446,1.446,0,0,1-.125.594q-.094.281-.219.563a.162.162,0,0,0,.016.156.135.135,0,0,0,.109.063h16.344a1.561,1.561,0,0,1,1.141.484,1.6,1.6,0,0,1,.484,1.172,1.6,1.6,0,0,1-.484,1.172,1.561,1.561,0,0,1-1.141.484H166.631a.193.193,0,0,0-.219.219v1.156q0,.25.219.25h9.438a1.447,1.447,0,0,1,1.063.438,1.428,1.428,0,0,1,.438,1.047,1.428,1.428,0,0,1-.437,1.047,1.447,1.447,0,0,1-1.062.438h-9.437q-.219,0-.219.25v1.344q0,.25.219.25h10.25a1.509,1.509,0,0,1,1.109.453,1.49,1.49,0,0,1,.453,1.094,1.49,1.49,0,0,1-.453,1.094,1.509,1.509,0,0,1-1.109.453h-10.25a.193.193,0,0,0-.219.219v1.125a.392.392,0,0,0,.188.344,27.438,27.438,0,0,1,2.344,1.75,1.482,1.482,0,0,1,.531,1.156,1.688,1.688,0,0,1-.625,1.344h-.031a1.7,1.7,0,0,1-1.156.438.348.348,0,0,1-.156-.031,1.918,1.918,0,0,1-1.312-.594,20.854,20.854,0,0,0-2.781-2.187,1.068,1.068,0,0,1-.437-.812.926.926,0,0,1,.344-.812L163.381-9q.031,0,.016-.031a.05.05,0,0,0-.047-.031A.75.75,0,0,1,162.8-9.3a.75.75,0,0,1-.234-.547ZM154.975.344a1.89,1.89,0,0,1-1.344.688.693.693,0,0,1-.219.031,2.225,2.225,0,0,1-1.281-.406l-.094-.094a1.357,1.357,0,0,1-.625-1.219,1.578,1.578,0,0,1,.406-1.062,13.529,13.529,0,0,0,2.344-4.156,1.838,1.838,0,0,1,.906-1.031,1.529,1.529,0,0,1,.781-.219,1.77,1.77,0,0,1,.563.094,1.834,1.834,0,0,1,1.063.906,1.757,1.757,0,0,1,.219.844,1.682,1.682,0,0,1-.094.531A15.567,15.567,0,0,1,154.975.344Zm9.656-1.437h4.281a1.628,1.628,0,0,0,.953-.219,1.457,1.457,0,0,0,.422-.937,1.246,1.246,0,0,1,.656-.906,1.256,1.256,0,0,1,.656-.187,1.415,1.415,0,0,1,.5.094,2.406,2.406,0,0,1,1.188.938,1.771,1.771,0,0,1,.313,1,2.886,2.886,0,0,1-.031.406,4.075,4.075,0,0,1-1.359,2.531,5.084,5.084,0,0,1-2.953.688h-5.062q-3.031,0-4.047-.922t-1.016-3.484V-5.312a1.757,1.757,0,0,1,.547-1.312,1.8,1.8,0,0,1,1.3-.531h.094a1.8,1.8,0,0,1,1.3.531,1.757,1.757,0,0,1,.547,1.313v3.188q0,.688.313.859A3.551,3.551,0,0,0,164.631-1.094Zm8.563-3.969a1.45,1.45,0,0,1-.312-.906,1.449,1.449,0,0,1,.031-.281,1.246,1.246,0,0,1,.75-.969,2.28,2.28,0,0,1,1.031-.25,3.319,3.319,0,0,1,.469.031,2.2,2.2,0,0,1,1.313.75,26.975,26.975,0,0,1,3.344,4.656,1.862,1.862,0,0,1,.188.781,2.165,2.165,0,0,1-.094.625,1.921,1.921,0,0,1-1,1.063l-.187.094a1.607,1.607,0,0,1-.719.188,1.751,1.751,0,0,1-.656-.125,1.989,1.989,0,0,1-1-.937A27,27,0,0,0,173.194-5.062Zm25.337-16.156q0-.219-.25-.219h-4.406a.193.193,0,0,0-.219.219v6.281q0,10.406-2.187,16.156a1.1,1.1,0,0,1-.906.75.836.836,0,0,1-.312.063,1.325,1.325,0,0,1-.875-.312A2.473,2.473,0,0,1,188.5.531a2.271,2.271,0,0,1-.125-.719,2.36,2.36,0,0,1,.125-.75q1.656-4.781,1.656-14V-22.75a1.757,1.757,0,0,1,.547-1.312,1.8,1.8,0,0,1,1.3-.531h9.781q.219,0,.219-.25v-.375a1.757,1.757,0,0,1,.547-1.312,1.8,1.8,0,0,1,1.3-.531h.281a1.783,1.783,0,0,1,1.313.531,1.783,1.783,0,0,1,.531,1.313v.375a.221.221,0,0,0,.25.25h9.719a1.561,1.561,0,0,1,1.125.453,1.483,1.483,0,0,1,.469,1.109,1.534,1.534,0,0,1-.469,1.125,1.534,1.534,0,0,1-1.125.469h-3.562a.193.193,0,0,0-.219.219v1.313a.193.193,0,0,0,.219.219h3.219a1.246,1.246,0,0,1,.938.391,1.306,1.306,0,0,1,.375.938,1.253,1.253,0,0,1-.375.922,1.272,1.272,0,0,1-.937.375h-3.219q-.219,0-.219.25v5.438a1.384,1.384,0,0,1-.422,1.016,1.367,1.367,0,0,1-1,.422,1.316,1.316,0,0,1-.984-.422,1.412,1.412,0,0,1-.406-1.016v-5.437a.221.221,0,0,0-.25-.25h-1.969a1.287,1.287,0,0,1-.922-.375,1.228,1.228,0,0,1-.391-.922,1.279,1.279,0,0,1,.391-.937,1.261,1.261,0,0,1,.922-.391h1.969q.25,0,.25-.219v-1.312q0-.219-.25-.219h-7.531a.193.193,0,0,0-.219.219v1.313a.193.193,0,0,0,.219.219h2a1.246,1.246,0,0,1,.938.391,1.306,1.306,0,0,1,.375.938,1.253,1.253,0,0,1-.375.922,1.272,1.272,0,0,1-.937.375h-2q-.219,0-.219.25v5.219a1.334,1.334,0,0,1-.422,1,1.393,1.393,0,0,1-1,.406,1.341,1.341,0,0,1-.984-.406,1.359,1.359,0,0,1-.406-1v-5.219a.221.221,0,0,0-.25-.25h-1.969a1.287,1.287,0,0,1-.922-.375,1.228,1.228,0,0,1-.391-.922,1.279,1.279,0,0,1,.391-.937,1.261,1.261,0,0,1,.922-.391h1.969q.25,0,.25-.219Zm8,5.156a1,1,0,0,1,.734-.312,1.032,1.032,0,0,1,.734.3.972.972,0,0,1,.313.734v.281a8.49,8.49,0,0,1-.937,4.313.9.9,0,0,1-.734.406,1.178,1.178,0,0,1-.859-.281,1.1,1.1,0,0,1-.406-.719,1.131,1.131,0,0,1,.188-.812,6.112,6.112,0,0,0,.656-3.031v-.156A.924.924,0,0,1,206.531-16.062Zm-2.062,3.438a.972.972,0,0,1-.312.734,1.05,1.05,0,0,1-.75.3,1,1,0,0,1-.734-.3,1,1,0,0,1-.3-.734V-15.25a1.05,1.05,0,0,1,.3-.75.972.972,0,0,1,.734-.312,1.023,1.023,0,0,1,.75.313,1.023,1.023,0,0,1,.313.75Zm-8.719-3.406a1,1,0,0,1,.734-.312,1.032,1.032,0,0,1,.734.3.972.972,0,0,1,.313.734v.281a8.908,8.908,0,0,1-.969,4.5.806.806,0,0,1-.687.406,1.119,1.119,0,0,1-.812-.25,1.111,1.111,0,0,1-.406-.734,1.374,1.374,0,0,1,.156-.859,6.836,6.836,0,0,0,.625-3.125v-.219A.924.924,0,0,1,195.75-16.031Zm14.313,13.5a1.182,1.182,0,0,1-.344-.812.693.693,0,0,1,.031-.219,1.142,1.142,0,0,1,.625-.875,2.344,2.344,0,0,1,1.063-.25,2.1,2.1,0,0,1,.344.031,2.4,2.4,0,0,1,1.281.625A40.42,40.42,0,0,1,216.594-.25a1.408,1.408,0,0,1,.313.875,1.18,1.18,0,0,1-.062.375,1.618,1.618,0,0,1-.812,1.031l-.406.188a1.387,1.387,0,0,1-.625.156,1.586,1.586,0,0,1-.437-.062,1.637,1.637,0,0,1-.875-.625.307.307,0,0,0-.281-.156q-6.875.25-17.344.531H196a1.618,1.618,0,0,1-1.094-.406,1.6,1.6,0,0,1-.562-1.25,1.393,1.393,0,0,1,.406-.969,1.339,1.339,0,0,1,1.063-.469q2.156-.031,2.844-.031a.77.77,0,0,0,.438-.125q.625-.406,1.688-1.156.219-.125.031-.281a36.769,36.769,0,0,0-3.844-2.656,1.188,1.188,0,0,1-.594-1.062,1.157,1.157,0,0,1,.406-.875,2.033,2.033,0,0,1,1.25-.562,1.448,1.448,0,0,1,.281-.031,2.193,2.193,0,0,1,1.094.281.09.09,0,0,0,.063.031.344.344,0,0,0,.375-.031q1-1,1.969-2.062a2.008,2.008,0,0,1,1.219-.719,1.586,1.586,0,0,1,.438-.062,2.034,2.034,0,0,1,.969.25,1.168,1.168,0,0,1,.656.938v.156a1.189,1.189,0,0,1-.406.906q-1.344,1.187-2.469,2.094-.187.156.031.281.625.406,1.406,1a.264.264,0,0,0,.375,0q2.031-1.625,3.625-3.062a2.546,2.546,0,0,1,1.375-.687h.375a2.557,2.557,0,0,1,1.156.281,1.151,1.151,0,0,1,.656,1.094,1.154,1.154,0,0,1-.469.938q-3.344,2.75-6.562,4.906a.071.071,0,0,0-.016.078q.016.047.047.047,4.469-.062,6.813-.125a.1.1,0,0,0,.094-.062.062.062,0,0,0-.031-.094Q210.562-2.031,210.063-2.531Zm5.656-9.375H216a.59.59,0,0,0,.188-.031.339.339,0,0,0,.125-.062,1.952,1.952,0,0,0,.156-.344,1.9,1.9,0,0,0,.063-.562.542.542,0,0,1,.3-.453.542.542,0,0,1,.547.016,1.242,1.242,0,0,1,.781,1.125.348.348,0,0,1-.031.156A3.848,3.848,0,0,1,217.906-11a1.662,1.662,0,0,1-.75.719,2.133,2.133,0,0,1-1,.188h-1a1.819,1.819,0,0,1-1.437-.531,1.415,1.415,0,0,1-.375-.734,8.713,8.713,0,0,1-.094-1.547v-2.375a1.06,1.06,0,0,1,.313-.781,1.06,1.06,0,0,1,.781-.312,1.06,1.06,0,0,1,.781.313,1.06,1.06,0,0,1,.313.781v3.094q0,.219.125.25A.247.247,0,0,0,215.719-11.906Zm14.9-13.375a1.936,1.936,0,0,1,.938-1.094,1.757,1.757,0,0,1,.844-.219,1.5,1.5,0,0,1,.531.094,1.722,1.722,0,0,1,1.094.875,1.726,1.726,0,0,1,.188.781,1.6,1.6,0,0,1-.125.594q-.781,2.156-1.844,4.531a.967.967,0,0,0-.094.438V1a1.684,1.684,0,0,1-.516,1.234,1.735,1.735,0,0,1-2.469,0A1.684,1.684,0,0,1,228.65,1V-13a.072.072,0,0,0-.047-.078.071.071,0,0,0-.078.016q-.344.5-.687.969a.931.931,0,0,1-.781.438.59.59,0,0,1-.187-.031,1.056,1.056,0,0,1-.844-.656q-.156-.375-.344-.781a2.885,2.885,0,0,1-.281-1.25,1.59,1.59,0,0,1,.031-.312,2.758,2.758,0,0,1,.563-1.5A35.455,35.455,0,0,0,230.619-25.281ZM243.869-11.5q0-.031-.031-.016a.05.05,0,0,0-.031.047V-1.375a.1.1,0,0,0,.063.094.062.062,0,0,0,.094-.031,14.793,14.793,0,0,0,3.344-3.969.468.468,0,0,0,.063-.406,36.533,36.533,0,0,1-1.781-6.344.055.055,0,0,0-.062-.062.127.127,0,0,0-.094.031q-.187.344-.344.625a.667.667,0,0,1-.609.3A.723.723,0,0,1,243.869-11.5Zm-3.625,7.531a.193.193,0,0,0,.219-.219V-9.219a.193.193,0,0,0-.219-.219H237.4a.193.193,0,0,0-.219.219v5.031a.193.193,0,0,0,.219.219Zm10.375-13.812q.031-.25-.219-.25h-2.219a.326.326,0,0,0-.312.25.716.716,0,0,1-.062.219.72.72,0,0,0-.062.25.889.889,0,0,0-.062.469,43.822,43.822,0,0,0,1.406,6.969.106.106,0,0,0,.078.031.106.106,0,0,0,.078-.031A43.7,43.7,0,0,0,250.619-17.781Zm4.75-1.594a1.3,1.3,0,0,1-.391.953,1.3,1.3,0,0,1-.953.391.166.166,0,0,0-.187.188,41.687,41.687,0,0,1-2.781,12.25.4.4,0,0,0,.031.406,14.5,14.5,0,0,0,2.938,3.719A1.79,1.79,0,0,1,254.65-.25a.693.693,0,0,1,.031.219,1.655,1.655,0,0,1-.375,1.063.364.364,0,0,1-.062.094,1.764,1.764,0,0,1-1.156.719h-.281a1.454,1.454,0,0,1-.969-.375,16.413,16.413,0,0,1-2.656-3.312.112.112,0,0,0-.109-.062.194.194,0,0,0-.141.063,16.77,16.77,0,0,1-3.281,3.5,1.661,1.661,0,0,1-1,.344,1.448,1.448,0,0,1-.281-.031,1.957,1.957,0,0,1-1.187-.625q-.094-.125-.219-.281a1.027,1.027,0,0,1-.312-.891,1.151,1.151,0,0,1,.5-.828.071.071,0,0,0,.016-.078q-.016-.047-.047-.047H237.4q-.219,0-.219.25v.406a1.545,1.545,0,0,1-.484,1.156,1.6,1.6,0,0,1-1.156.469,1.6,1.6,0,0,1-1.156-.469A1.545,1.545,0,0,1,233.9-.125V-10.844a1.772,1.772,0,0,1,.547-1.3,1.772,1.772,0,0,1,1.3-.547h1.125q.25,0,.25-.219v-4.75q0-.219-.25-.219H235.15a1.633,1.633,0,0,1-1.219-.516,1.692,1.692,0,0,1-.5-1.219,1.64,1.64,0,0,1,.5-1.2,1.658,1.658,0,0,1,1.219-.5h1.719q.25,0,.25-.219v-3.375a1.736,1.736,0,0,1,.516-1.25,1.7,1.7,0,0,1,1.266-.531,1.7,1.7,0,0,1,1.266.531,1.736,1.736,0,0,1,.516,1.25v3.375q0,.219.25.219h1.375a1.658,1.658,0,0,1,1.219.5,1.64,1.64,0,0,1,.5,1.2,1.692,1.692,0,0,1-.5,1.219,1.633,1.633,0,0,1-1.219.516h-1.375q-.25,0-.25.219v4.75q0,.219.25.219h2.031q.156,0,.063-.094a1.874,1.874,0,0,1-.312-1,2.108,2.108,0,0,1,.25-.937,31.814,31.814,0,0,0,3.25-10.656,1.664,1.664,0,0,1,.656-1.125,1.724,1.724,0,0,1,.969-.312,1.59,1.59,0,0,1,.313.031,1.789,1.789,0,0,1,1.125.688,1.724,1.724,0,0,1,.313.969,1.59,1.59,0,0,1-.031.313q-.344,1.906-.656,3.375-.063.219.188.219h4.688a1.534,1.534,0,0,1,1.125.469,1.534,1.534,0,0,1,.469,1.125Zm24.369,9.344q-.75,1.812-2.094,1.813h-.437a1.87,1.87,0,0,1-1.375-.562,1.255,1.255,0,0,1-.406-.906,2.276,2.276,0,0,1,.031-.375,4.814,4.814,0,0,1,.984-1.859A9.825,9.825,0,0,1,278-13.453q.828-.641,1.625-1.266a7.278,7.278,0,0,0,1.328-1.328,2.384,2.384,0,0,0,.531-1.453,2.577,2.577,0,0,0-1.078-2.219,4.944,4.944,0,0,0-2.953-.781,6.23,6.23,0,0,0-3.812,1.281,2.376,2.376,0,0,1-1.344.5h-.062a1.789,1.789,0,0,1-1.219-.469,1.787,1.787,0,0,1-.594-1.344,1.482,1.482,0,0,1,.531-1.156,10.375,10.375,0,0,1,7-2.625,9.459,9.459,0,0,1,5.828,1.656,5.585,5.585,0,0,1,2.2,4.75,4.147,4.147,0,0,1-.516,2.031,5.724,5.724,0,0,1-1.328,1.625q-.812.687-1.656,1.313a16.7,16.7,0,0,0-1.625,1.375A4.893,4.893,0,0,0,279.737-10.031ZM275.05-.594a3.04,3.04,0,0,1-.937-2.281,2.989,2.989,0,0,1,.938-2.266,3.331,3.331,0,0,1,2.391-.891,3.331,3.331,0,0,1,2.391.891,2.989,2.989,0,0,1,.938,2.266,2.989,2.989,0,0,1-.937,2.266,3.331,3.331,0,0,1-2.391.891A3.365,3.365,0,0,1,275.05-.594Z" transform="translate(72 34)"/>
</svg>
