<svg id="Group_9" data-name="Group 9" xmlns="http://www.w3.org/2000/svg" width="361" height="44" viewBox="0 0 361 44">
  <g id="Group_2" data-name="Group 2">
    <text id="_copy" data-name="『 copy" transform="translate(0 34)" font-size="32" font-family="GenJyuuGothic-Heavy, Gen Jyuu Gothic" font-weight="800"><tspan x="0" y="0" xml:space="preserve"> 『</tspan></text>
    <text id="_copy-2" data-name="』 copy" transform="translate(321 34)" font-size="32" font-family="GenJyuuGothic-Heavy, Gen Jyuu Gothic" font-weight="800"><tspan x="0" y="0" xml:space="preserve"> 』</tspan></text>
    <rect id="Rectangle_Copy_3" data-name="Rectangle Copy 3" width="233" height="15" transform="translate(60 29)" fill="#ffb3b3"/>
    <path id="偵查隊集點卡" d="M24.844-15.219a.221.221,0,0,0,.25-.25v-1.25a.221.221,0,0,0-.25-.25H15.938q-.219,0-.219.25v1.25q0,.25.219.25Zm0,4.313a.221.221,0,0,0,.25-.25v-1.219q0-.219-.25-.219H15.938a.193.193,0,0,0-.219.219v1.219q0,.25.219.25Zm0,4.406q.25,0,.25-.219V-8q0-.219-.25-.219H15.938A.193.193,0,0,0,15.719-8v1.281a.193.193,0,0,0,.219.219Zm2.25-13.281a1.772,1.772,0,0,1,1.3.547,1.772,1.772,0,0,1,.547,1.3V-5.562a1.757,1.757,0,0,1-.547,1.313,1.8,1.8,0,0,1-1.3.531H13.875a1.8,1.8,0,0,1-1.3-.531,1.757,1.757,0,0,1-.547-1.312V-17.937a1.772,1.772,0,0,1,.547-1.3,1.772,1.772,0,0,1,1.3-.547h4.188q.25,0,.25-.219v-5.25a1.783,1.783,0,0,1,.531-1.312,1.783,1.783,0,0,1,1.313-.531h.156a1.8,1.8,0,0,1,1.3.531,1.757,1.757,0,0,1,.547,1.313v.156a.193.193,0,0,0,.219.219h6.25a1.561,1.561,0,0,1,1.141.484,1.561,1.561,0,0,1,.484,1.141,1.561,1.561,0,0,1-.484,1.141,1.561,1.561,0,0,1-1.141.484h-6.25a.193.193,0,0,0-.219.219V-20a.193.193,0,0,0,.219.219ZM7.5-25.344a1.938,1.938,0,0,1,1-1.031,1.992,1.992,0,0,1,.844-.187,2.067,2.067,0,0,1,.594.094h.031a1.6,1.6,0,0,1,1,.906,1.649,1.649,0,0,1,.156.688,2,2,0,0,1-.125.688q-1.031,2.281-2.156,4.281a.967.967,0,0,0-.094.438V.875a1.746,1.746,0,0,1-.531,1.281,1.811,1.811,0,0,1-2.562,0A1.746,1.746,0,0,1,5.125.875V-13.969a.074.074,0,0,0-.062-.078.093.093,0,0,0-.094.016q-.594.75-1.25,1.5a1.1,1.1,0,0,1-.844.375H2.656a1.238,1.238,0,0,1-.937-.719q-.156-.312-.312-.594a2.621,2.621,0,0,1-.281-1.187V-15a2.484,2.484,0,0,1,.625-1.406A34.284,34.284,0,0,0,7.5-25.344ZM14.406-2.156A3.366,3.366,0,0,1,16.5-2.969a2.831,2.831,0,0,1,1,.188l.438.156a1.07,1.07,0,0,1,.75.844,1.027,1.027,0,0,1,.031.25.976.976,0,0,1-.375.781,26.426,26.426,0,0,1-3.906,2.781,2.458,2.458,0,0,1-1.25.344h-.281a3.124,3.124,0,0,1-1.5-.594A2.813,2.813,0,0,0,11,1.5a.978.978,0,0,1-.406-.812.969.969,0,0,1,.563-.937A21.249,21.249,0,0,0,14.406-2.156ZM23.219-.625a1.08,1.08,0,0,1-.5-.937,1.051,1.051,0,0,1,.594-1l.031-.031A3.063,3.063,0,0,1,24.875-3h.063a3.235,3.235,0,0,1,1.594.469q1.813,1.188,3.188,2.188a1.184,1.184,0,0,1,.469.969,1.217,1.217,0,0,1-.656,1.125l-.312.188a2.458,2.458,0,0,1-1.25.344,1.448,1.448,0,0,1-.281-.031,2.459,2.459,0,0,1-1.437-.594Q24.969.594,23.219-.625ZM43.576-14.464V-2.208H63.352V-14.464ZM60.088-5.152H46.84V-6.88H60.088ZM46.84-9.7V-11.52H60.088V-9.7ZM40.184-23.744v3.072h8.8a32.344,32.344,0,0,1-10.4,4.384l1.824,2.944q7.632-2.832,11.424-7.1v5.056H55.1v-5.056q3.6,4.368,11.616,7.1l1.44-3.008a27.887,27.887,0,0,1-10.144-4.32h8.736v-3.072H55.1v-2.592H51.832v2.592Zm-.64,23.2V2.5H67.288V-.544ZM94.175-16.375a.177.177,0,0,0,0,.313,15.932,15.932,0,0,1,3.656,5.531,62.035,62.035,0,0,1-1.75-7.375A.1.1,0,0,0,96-18.016a.09.09,0,0,0-.109.047A20.236,20.236,0,0,1,94.175-16.375Zm8.156.438a1.622,1.622,0,0,1,1.188-.5h.031a1.522,1.522,0,0,1,1.156.5,1.534,1.534,0,0,1,.469,1.125,1.545,1.545,0,0,1-.562,1.25q-1.781,1.5-3.219,2.531a.3.3,0,0,0-.094.375,20.214,20.214,0,0,0,3.625,6.188,1.849,1.849,0,0,1,.469,1.266,1.849,1.849,0,0,1-.469,1.266,1.024,1.024,0,0,1-.125.156,1.79,1.79,0,0,1-1.219.625h-.125a1.361,1.361,0,0,1-1.062-.5A23.553,23.553,0,0,1,98.3-9.094a17.348,17.348,0,0,1,.625,4.469A12.806,12.806,0,0,1,98.8-2.812a6.556,6.556,0,0,1-1.719,4.125,4.071,4.071,0,0,1-1.547,1.094,6.3,6.3,0,0,1-2.047.344H93.05a1.746,1.746,0,0,1-1.281-.531A2.808,2.808,0,0,1,90.988.875a1.1,1.1,0,0,1-.062-.344,1.2,1.2,0,0,1,.25-.719.994.994,0,0,1,.875-.469h.063q.375.031.719.031a1.687,1.687,0,0,0,1-.25A2.7,2.7,0,0,0,94.8-2.187,7.345,7.345,0,0,0,95.269-5v-.406q0-.062-.078-.094t-.109.031A35.177,35.177,0,0,1,88.3-.5a1.8,1.8,0,0,1-.906.25,1.938,1.938,0,0,1-.469-.062,2.022,2.022,0,0,1-1.187-.75,1.244,1.244,0,0,1-.312-.812v-.25A1.22,1.22,0,0,1,86.113-3a27.71,27.71,0,0,0,4.547-2.734,23.9,23.9,0,0,0,3.734-3.328.367.367,0,0,0,.063-.406,9.751,9.751,0,0,0-.375-1q-.125-.219-.281-.062A38.856,38.856,0,0,1,89.456-7.25a1.859,1.859,0,0,1-.969.281,1.485,1.485,0,0,1-.406-.062,2.116,2.116,0,0,1-1.25-.781.09.09,0,0,1-.031-.062.13.13,0,0,0-.125-.047.074.074,0,0,0-.062.078A3.683,3.683,0,0,1,85.3-5.219a4.908,4.908,0,0,1-1.875.688,2.1,2.1,0,0,0-.344.031h-.156a1.516,1.516,0,0,1-1.062-.437,2.327,2.327,0,0,1-.719-1.187,1.964,1.964,0,0,1-.031-.312,1.319,1.319,0,0,1,.219-.719,1.365,1.365,0,0,1,.906-.562,1.411,1.411,0,0,0,.625-.25q.469-.344.469-1.781a8.141,8.141,0,0,0-1.125-4.094,4.56,4.56,0,0,1-.687-2.281,4.109,4.109,0,0,1,.125-1q.531-1.875,1.25-5,.062-.219-.156-.219H80.706a.221.221,0,0,0-.25.25V1.125A1.6,1.6,0,0,1,79.972,2.3a1.622,1.622,0,0,1-2.312,0,1.6,1.6,0,0,1-.484-1.172v-25a1.783,1.783,0,0,1,.531-1.312,1.783,1.783,0,0,1,1.313-.531H84.05a.277.277,0,0,0,.125-.031,1.16,1.16,0,0,1,.906.125l.813.469a1.668,1.668,0,0,1,.781.906,1.751,1.751,0,0,1,.125.656,2.453,2.453,0,0,1-.062.531q-1.5,4.844-2.281,7.094a.367.367,0,0,0,.063.406,9.985,9.985,0,0,1,2.188,5.969.165.165,0,0,0,.063.141.162.162,0,0,0,.156.016A24.768,24.768,0,0,0,92.3-12.969a.246.246,0,0,0,.031-.344q-.313-.406-.656-.781a.267.267,0,0,0-.375-.062q-1,.719-2.062,1.344a1.859,1.859,0,0,1-.937.25,1.485,1.485,0,0,1-.406-.062,2.162,2.162,0,0,1-1.219-.75,1.243,1.243,0,0,1-.281-.812,1.448,1.448,0,0,1,.031-.281,1.232,1.232,0,0,1,.688-.906,25.209,25.209,0,0,0,5-3.25.076.076,0,0,0,.047-.094.074.074,0,0,0-.078-.062H88.425a1.6,1.6,0,0,1-1.172-.484,1.6,1.6,0,0,1-.484-1.172,1.6,1.6,0,0,1,.484-1.172,1.6,1.6,0,0,1,1.172-.484h1.813a.165.165,0,0,0,.141-.062.162.162,0,0,0,.016-.156,20.227,20.227,0,0,0-.875-2.094,1.586,1.586,0,0,1-.156-.656,1.682,1.682,0,0,1,.094-.531,1.31,1.31,0,0,1,.844-.781,1.751,1.751,0,0,1,.656-.125,2,2,0,0,1,.688.125,1.734,1.734,0,0,1,1,.875,17.17,17.17,0,0,1,1.125,2.469.671.671,0,0,1-.047.547.719.719,0,0,1-.422.359v.016q0,.016.031.016h5.156a.608.608,0,0,1-.391-.375A.63.63,0,0,1,98.113-23a22.05,22.05,0,0,0,1.031-2.344,1.939,1.939,0,0,1,.969-1.062,1.942,1.942,0,0,1,.875-.219,2.184,2.184,0,0,1,.531.063l.094.031a1.408,1.408,0,0,1,.969.844,1.672,1.672,0,0,1,.125.625,1.425,1.425,0,0,1-.187.688q-.688,1.375-1.094,2.094a.087.087,0,0,0-.016.125.135.135,0,0,0,.109.063h2.188a1.6,1.6,0,0,1,1.172.484,1.6,1.6,0,0,1,.484,1.172,1.6,1.6,0,0,1-.484,1.172,1.6,1.6,0,0,1-1.172.484H99.269q-.25,0-.187.219.437,2.312,1.031,4.438a.146.146,0,0,0,.109.109.213.213,0,0,0,.141-.016Q101.425-15,102.331-15.937Zm18.962,2.875q-.219,0-.219.25v.906a.193.193,0,0,0,.219.219h5.594a.193.193,0,0,0,.219-.219v-.906q0-.25-.219-.25Zm5.594-6.344a.193.193,0,0,0,.219-.219v-.844q0-.25-.219-.25h-5.594q-.219,0-.219.25v.844a.193.193,0,0,0,.219.219Zm0,3.844a.193.193,0,0,0,.219-.219v-.875q0-.25-.219-.25h-5.594q-.219,0-.219.25v.875a.193.193,0,0,0,.219.219Zm15.219,8.469a1.4,1.4,0,0,1,.469,1.063,1.472,1.472,0,0,1-.453,1.078,1.472,1.472,0,0,1-1.078.453h-7.719q-.031,0-.047.047t.016.047a35.919,35.919,0,0,0,8.25,3.313,1.131,1.131,0,0,1,.781.75,2.278,2.278,0,0,1,.031.375,1.2,1.2,0,0,1-.25.719.489.489,0,0,0-.094.125,3.227,3.227,0,0,1-1.281.969,2.75,2.75,0,0,1-.812.125,2.963,2.963,0,0,1-.719-.094,34.468,34.468,0,0,1-9.031-4.594.133.133,0,0,0-.125,0,.1.1,0,0,0-.062.094V.906a1.783,1.783,0,0,1-.531,1.313,1.783,1.783,0,0,1-1.312.531h-.031a1.783,1.783,0,0,1-1.312-.531,1.783,1.783,0,0,1-.531-1.312V-2.5q0-.063-.078-.094a.166.166,0,0,0-.141,0,34.405,34.405,0,0,1-9.062,4.625,2.359,2.359,0,0,1-.75.125A2.012,2.012,0,0,1,115.45,2a2.747,2.747,0,0,1-1.281-.937l-.187-.25a1.076,1.076,0,0,1-.25-.687,1.18,1.18,0,0,1,.063-.375,1.057,1.057,0,0,1,.781-.75,37.541,37.541,0,0,0,8.594-3.406q.031,0,.016-.047t-.047-.047h-7.781a1.472,1.472,0,0,1-1.078-.453,1.472,1.472,0,0,1-.453-1.078,1.472,1.472,0,0,1,.453-1.078,1.472,1.472,0,0,1,1.078-.453h10.656q.25,0,.25-.219v-.781a.221.221,0,0,0-.25-.25h-6.719a1.783,1.783,0,0,1-1.312-.531,1.783,1.783,0,0,1-.531-1.312v-6.562a.074.074,0,0,0-.062-.078.093.093,0,0,0-.094.016,2.347,2.347,0,0,0-.25.219,1.782,1.782,0,0,1-1.156.438H115.7a2.281,2.281,0,0,1-1.312-.625l-.031-.031a1.522,1.522,0,0,1-.5-1.156,1.392,1.392,0,0,1,.531-1.125,25.43,25.43,0,0,0,5.219-5.969,2.663,2.663,0,0,1,1.188-1.062,2.477,2.477,0,0,1,1.063-.25,3.319,3.319,0,0,1,.469.031l.313.063a1.246,1.246,0,0,1,.969.75,1.5,1.5,0,0,1,.094.531,1.373,1.373,0,0,1-.187.656q-.313.469-.656.969a.133.133,0,0,0,0,.125.1.1,0,0,0,.094.063h4.094a.392.392,0,0,0,.344-.187q.344-.75.656-1.531a2.53,2.53,0,0,1,1-1.187,2.242,2.242,0,0,1,1.188-.344,1.448,1.448,0,0,1,.281.031l.625.063a1.251,1.251,0,0,1,.969.656,1.375,1.375,0,0,1,.125.563,1.2,1.2,0,0,1-.156.594q-.344.594-.719,1.156a.133.133,0,0,0,0,.125.126.126,0,0,0,.125.063h7.844a1.4,1.4,0,0,1,1.047.438,1.455,1.455,0,0,1,.422,1.047,1.4,1.4,0,0,1-.422,1.031,1.421,1.421,0,0,1-1.047.422h-8.344q-.219,0-.219.25v.844a.193.193,0,0,0,.219.219h7a1.184,1.184,0,0,1,.891.375,1.243,1.243,0,0,1,.359.891,1.191,1.191,0,0,1-.359.875,1.209,1.209,0,0,1-.891.359h-7q-.219,0-.219.25v.875a.193.193,0,0,0,.219.219h7.031a1.184,1.184,0,0,1,.891.375,1.243,1.243,0,0,1,.359.891,1.191,1.191,0,0,1-.359.875,1.209,1.209,0,0,1-.891.359h-7.031q-.219,0-.219.25v.906a.193.193,0,0,0,.219.219h9.313a1.384,1.384,0,0,1,1.016.422,1.384,1.384,0,0,1,.422,1.016,1.384,1.384,0,0,1-.422,1.016,1.384,1.384,0,0,1-1.016.422H130.231a.221.221,0,0,0-.25.25v.781q0,.219.25.219h10.813A1.4,1.4,0,0,1,142.106-7.094Zm12.588-14.687a.028.028,0,0,0-.031-.031.028.028,0,0,0-.031.031v4.906q0,.25.219.25h2.219a.221.221,0,0,0,.25-.25v-6.469a.221.221,0,0,0-.25-.25H154.85q-.219,0-.219.25v.938q0,.156.156.125a1.586,1.586,0,0,1,.438-.062,1.586,1.586,0,0,1,.656.156,1.342,1.342,0,0,1,.656.844,18.673,18.673,0,0,1,.5,2.375.947.947,0,0,1-.156.7,1.132,1.132,0,0,1-.562.453.7.7,0,0,1-.625-.109.705.705,0,0,1-.312-.516A22.122,22.122,0,0,0,154.694-21.781Zm7.5-.469q.188.062.188-.125v-.969a.221.221,0,0,0-.25-.25H159.85q-.219,0-.219.25v4.813a.028.028,0,0,0,.031.031.028.028,0,0,0,.031-.031q.469-1.406.813-2.781a1.342,1.342,0,0,1,.656-.844,1.2,1.2,0,0,1,.594-.156A1.586,1.586,0,0,1,162.194-22.25Zm-2.562,5.375q0,.25.219.25h2.281a.221.221,0,0,0,.25-.25v-4.062q0-.062-.047-.062t-.047.031q-.656,1.719-.875,2.281a1.179,1.179,0,0,1-.672.7,1.289,1.289,0,0,1-.984.016q-.125-.062-.125.125ZM152.756-4.969h-.062a1.5,1.5,0,0,1-1.062-.406,1.558,1.558,0,0,1-.5-1.187,1.447,1.447,0,0,1,.438-1.062,1.393,1.393,0,0,1,1.094-.5q.5-.031,3.875-.125.219,0,.219-.25V-9.562a.193.193,0,0,0-.219-.219h-3.25a1.384,1.384,0,0,1-1.016-.422,1.4,1.4,0,0,1-.422-1.031,1.4,1.4,0,0,1,.422-1.031,1.384,1.384,0,0,1,1.016-.422h3.25a.193.193,0,0,0,.219-.219v-.937q0-.25-.219-.25h-2.906a1.783,1.783,0,0,1-1.312-.531,1.783,1.783,0,0,1-.531-1.312v-8.375a1.8,1.8,0,0,1,.531-1.3,1.757,1.757,0,0,1,1.313-.547h9.844a1.772,1.772,0,0,1,1.3.547,1.772,1.772,0,0,1,.547,1.3v8.375a1.757,1.757,0,0,1-.547,1.313,1.8,1.8,0,0,1-1.3.531H160.35q-.219,0-.219.25v.938a.193.193,0,0,0,.219.219h3.469a1.384,1.384,0,0,1,1.016.422,1.4,1.4,0,0,1,.422,1.031,1.4,1.4,0,0,1-.422,1.031,1.384,1.384,0,0,1-1.016.422H160.35a.193.193,0,0,0-.219.219v.938q0,.25.219.219.594,0,1.25-.031t1.453-.062q.8-.031,1.234-.062h.063a1.323,1.323,0,0,1,.969.406,1.359,1.359,0,0,1,.406,1,1.553,1.553,0,0,1-.437,1.094,1.7,1.7,0,0,1-1.062.5Q157.975-5.187,152.756-4.969Zm.875,6.625a1.363,1.363,0,0,1-.906.656,2.1,2.1,0,0,1-.344.031,1.726,1.726,0,0,1-.781-.187,1.14,1.14,0,0,1-.594-.781,2.1,2.1,0,0,1-.031-.344,1.425,1.425,0,0,1,.188-.687,13.233,13.233,0,0,0,1.156-3.187,1.15,1.15,0,0,1,.547-.812,1.105,1.105,0,0,1,.953-.125,1.342,1.342,0,0,1,.844.656,1.37,1.37,0,0,1,.219.75,1.162,1.162,0,0,1-.031.281A13.4,13.4,0,0,1,153.631,1.656Zm1.906-4.469A.59.59,0,0,1,155.506-3a1.038,1.038,0,0,1,.219-.656,1.153,1.153,0,0,1,.781-.469,1.177,1.177,0,0,1,.891.234,1.255,1.255,0,0,1,.484.8q.281,1.594.406,3.188a1.285,1.285,0,0,1-.312.938,1.307,1.307,0,0,1-.875.469,1.127,1.127,0,0,1-.844-.3,1.127,1.127,0,0,1-.406-.8A31.577,31.577,0,0,0,155.538-2.812ZM158.881-3a1.59,1.59,0,0,1-.031-.312,1.172,1.172,0,0,1,.125-.531,1.066,1.066,0,0,1,.688-.469,1.286,1.286,0,0,1,.922.156,1.279,1.279,0,0,1,.578.719q.5,1.594.813,3.031a1.157,1.157,0,0,1-.187.906,1.176,1.176,0,0,1-.781.5,1.09,1.09,0,0,1-.859-.172,1.137,1.137,0,0,1-.484-.766A27.588,27.588,0,0,0,158.881-3Zm3.344-.344a1.11,1.11,0,0,1-.125-.5,1.1,1.1,0,0,1,.063-.344,1.035,1.035,0,0,1,.594-.625,1.682,1.682,0,0,1,.531-.094,1.415,1.415,0,0,1,.5.094,1.241,1.241,0,0,1,.75.625,22.221,22.221,0,0,1,1.375,2.719.93.93,0,0,1,.125.469,1.172,1.172,0,0,1-.125.531,1.339,1.339,0,0,1-.75.719,1.134,1.134,0,0,1-.937-.031,1.242,1.242,0,0,1-.656-.719A26.833,26.833,0,0,0,162.225-3.344Zm13.344,1.438a.221.221,0,0,0,.25-.25V-8.375q0-.219-.25-.219h-5.437q-.25,0-.25.219v6.219a.221.221,0,0,0,.25.25Zm4.406-18.062a1.61,1.61,0,0,1,.531,1.219,1.684,1.684,0,0,1-.516,1.234,1.684,1.684,0,0,1-1.234.516h-4.187q-.219,0-.219.25v4.438q0,.25.219.25H177.6a1.757,1.757,0,0,1,1.313.547,1.8,1.8,0,0,1,.531,1.3V.813a1.746,1.746,0,0,1-.531,1.281,1.746,1.746,0,0,1-1.281.531h-.844a.911.911,0,0,1-.687-.3.988.988,0,0,1-.281-.7.11.11,0,0,0-.125-.125h-5.656a.138.138,0,0,0-.156.156,1.049,1.049,0,0,1-.328.766,1.049,1.049,0,0,1-.766.328h-.625a1.658,1.658,0,0,1-1.219-.5,1.658,1.658,0,0,1-.5-1.219v-11.25a1.8,1.8,0,0,1,.531-1.3,1.757,1.757,0,0,1,1.313-.547h2.094a.221.221,0,0,0,.25-.25V-25.219a1.783,1.783,0,0,1,.531-1.312,1.783,1.783,0,0,1,1.313-.531h.031a1.8,1.8,0,0,1,1.3.531,1.757,1.757,0,0,1,.547,1.313v4.469q0,.25.219.25h4.188A1.61,1.61,0,0,1,179.975-19.969Zm37.556,6.063a1.772,1.772,0,0,1-.547,1.3,1.772,1.772,0,0,1-1.3.547H204.594q-.25,0-.25.219v2.438a.05.05,0,0,0,.031.047.051.051,0,0,0,.063-.016,1.506,1.506,0,0,1,.781-.656,1.375,1.375,0,0,1,.563-.125,1.177,1.177,0,0,1,.469.094q4.625,1.437,7.688,2.688a1.6,1.6,0,0,1,.906,1,2.054,2.054,0,0,1,.063.5,1.757,1.757,0,0,1-.219.844l-.156.281a1.959,1.959,0,0,1-1.156.875,1.865,1.865,0,0,1-.594.094,1.992,1.992,0,0,1-.844-.187Q209-5.313,204.563-6.875a.142.142,0,0,0-.156.031.18.18,0,0,0-.062.125V.906a1.757,1.757,0,0,1-.547,1.313,1.8,1.8,0,0,1-1.3.531h-.375a1.8,1.8,0,0,1-1.3-.531,1.757,1.757,0,0,1-.547-1.312v-12.75q0-.219-.25-.219h-9.625a1.772,1.772,0,0,1-1.3-.547,1.772,1.772,0,0,1-.547-1.3V-14a1.772,1.772,0,0,1,.547-1.3,1.772,1.772,0,0,1,1.3-.547h9.625q.25,0,.25-.219V-25.25a1.757,1.757,0,0,1,.547-1.312,1.8,1.8,0,0,1,1.3-.531h.375a1.8,1.8,0,0,1,1.3.531,1.757,1.757,0,0,1,.547,1.313v1.781a.221.221,0,0,0,.25.25h7.656a1.783,1.783,0,0,1,1.313.531,1.764,1.764,0,0,1,.531,1.3,1.764,1.764,0,0,1-.531,1.3,1.783,1.783,0,0,1-1.312.531h-7.656a.221.221,0,0,0-.25.25v3.25q0,.219.25.219h11.094a1.772,1.772,0,0,1,1.3.547,1.772,1.772,0,0,1,.547,1.3Z" transform="translate(68 34)"/>
  </g>
</svg>
