<svg xmlns="http://www.w3.org/2000/svg" xmlns:xlink="http://www.w3.org/1999/xlink" width="451.624" height="218.686" viewBox="0 0 451.624 218.686">
  <defs>
    <clipPath id="clip-path">
      <path id="Clip_2" data-name="Clip 2" d="M0,0H110.062V102.913H0Z" transform="translate(0 1.151)" fill="none"/>
    </clipPath>
    <clipPath id="clip-path-2">
      <path id="Clip_9" data-name="Clip 9" d="M0,0H107.656V104.786H0Z" transform="translate(1.027 0.019)" fill="none"/>
    </clipPath>
    <clipPath id="clip-path-3">
      <path id="Clip_14" data-name="Clip 14" d="M0,0H98V92.687H0Z" transform="translate(0.452 0.49)" fill="none"/>
    </clipPath>
  </defs>
  <g id="Group_24" data-name="Group 24" transform="translate(0 -1.294)">
    <g id="Group_3" data-name="Group 3" transform="translate(0 7.745)">
      <path id="Clip_2-2" data-name="Clip 2" d="M0,0H110.062V102.913H0Z" transform="translate(0 1.151)" fill="none"/>
      <g id="Group_3-2" data-name="Group 3" clip-path="url(#clip-path)">
        <path id="Fill_1" data-name="Fill 1" d="M90.656,102.913h-5.84a3.329,3.329,0,0,1-2.552-1.1,3.255,3.255,0,0,1-.791-2.756.508.508,0,0,0-.083-.414A.5.5,0,0,0,81,98.507H15.656c-.3,0-.465.18-.515.55a4.257,4.257,0,0,1-1.525,2.756,4.477,4.477,0,0,1-2.957,1.1H5.7a5.519,5.519,0,0,1-4.379-1.872A5.631,5.631,0,0,1,.068,96.413L12.044,6.5a7.379,7.379,0,0,1,2.482-4.574A7.1,7.1,0,0,1,19.411,0h84.952a5.434,5.434,0,0,1,4.371,1.928A5.68,5.68,0,0,1,110,6.5L98.024,96.413a7.314,7.314,0,0,1-2.49,4.628A7.191,7.191,0,0,1,90.656,102.913ZM27.14,14.765a.8.8,0,0,0-.874.773l-9,67.543a.715.715,0,0,0,.118.58.7.7,0,0,0,.551.19H82.617a.855.855,0,0,0,.983-.77l9-67.543a.678.678,0,0,0-.121-.555.844.844,0,0,0-.658-.218H84.986a.3.3,0,0,0-.3.166c-.032.069-.04.116-.024.142a.064.064,0,0,0,.058.024c.606.445,1.177.89,1.7,1.323a3.526,3.526,0,0,1,1.292,3.525,5.58,5.58,0,0,1-1.9,3.526l-.251.22c-.009.066-.018.131-.025.194l0,.027a.074.074,0,0,0,.016.061.257.257,0,0,0,.19.048,2.773,2.773,0,0,1,2.182.992,2.823,2.823,0,0,1,.682,2.314L88.3,29.641a6.312,6.312,0,0,1-2.181,3.966,6.2,6.2,0,0,1-4.188,1.652H70.138a.8.8,0,0,0-.875.771c-.106,2.951-.187,6.267-.248,10.139a.226.226,0,0,0,.03.18.134.134,0,0,0,.106.04.423.423,0,0,0,.29-.11c.487-1,1.034-2.035,1.624-3.086a8.419,8.419,0,0,1,3.709-3.856,6.83,6.83,0,0,1,3.561-1.1,5.015,5.015,0,0,1,1.4.22A4.256,4.256,0,0,1,83.132,41.1a4.5,4.5,0,0,1,.517,2.755,4.427,4.427,0,0,1-.677,1.762,93.507,93.507,0,0,1-11.707,18.4,1.505,1.505,0,0,0-.3,1.433,4.309,4.309,0,0,0,2.183,2.643h.22c.511,0,1.161-1.26,1.932-3.745a3.9,3.9,0,0,1,2.438-2.589,3.667,3.667,0,0,1,1.315-.267,2.865,2.865,0,0,1,1.924.761,9.91,9.91,0,0,1,2.91,4.629,6.449,6.449,0,0,1,.361,3.084,8.282,8.282,0,0,1-.625,2.2,23.734,23.734,0,0,1-3.45,5.841,12.609,12.609,0,0,1-4.282,3.415,9.66,9.66,0,0,1-4.1.993,10.721,10.721,0,0,1-5.414-1.543,12.1,12.1,0,0,1-5.511-4.958.571.571,0,0,0-.5-.361,1.04,1.04,0,0,0-.589.251c-1.578,1.327-3.112,2.55-4.56,3.635a7.1,7.1,0,0,1-4.033,1.322,3.9,3.9,0,0,1-.977-.11,6.9,6.9,0,0,1-4.292-2.535,33.72,33.72,0,0,0-2.562-3.085,1.213,1.213,0,0,0-1.03-.566,1.568,1.568,0,0,0-.218.016c-4.367.583-9.35,1.2-15.234,1.873a3.4,3.4,0,0,1-.787.11,5.038,5.038,0,0,1-3.46-1.323,4.538,4.538,0,0,1-1.579-3.856,1.977,1.977,0,0,1-.023-.661,6,6,0,0,1,1.918-3.636A6.562,6.562,0,0,1,27.182,64.9c5.967-.443,13.058-1.073,21.076-1.873.1-.007.2-.011.293-.011a3.248,3.248,0,0,1,2.338.947,3.306,3.306,0,0,1,.962,2.7.151.151,0,0,0,.087.166.444.444,0,0,0,.212.055,48.8,48.8,0,0,0,4-3.526,1.4,1.4,0,0,0,.507-1.322c-.878-6.578-1.047-15.327-.5-26a.675.675,0,0,0-.12-.553.842.842,0,0,0-.657-.218H32.233a4.831,4.831,0,0,1-4.98-5.619,6.648,6.648,0,0,1,6.477-5.62H56.1a.79.79,0,0,0,.889-.882c.022-.694.046-1.164.066-1.321a6.673,6.673,0,0,1,2.32-4.188,6.792,6.792,0,0,1,4.768-1.873h.329A5.69,5.69,0,0,1,68.9,17.63a5.852,5.852,0,0,1,1.423,4.628q-.031.236-.063.471l0,.017q-.026.2-.053.392a.815.815,0,0,0,.133.663.8.8,0,0,0,.632.219h6.611a.307.307,0,0,0,.305-.22.24.24,0,0,0-.121-.33A4.741,4.741,0,0,1,76.092,19.5l.046-.346.028-.206a5.8,5.8,0,0,1,2.026-3.636.285.285,0,0,0,.046-.33c-.056-.147-.12-.221-.192-.221Zm17.2,45.4H32a5.555,5.555,0,0,1-5.636-6.5l1.1-8.265a7.643,7.643,0,0,1,7.367-6.5H47.176a5.526,5.526,0,0,1,4.377,1.872A5.642,5.642,0,0,1,52.811,45.4l-1.1,8.265a7.3,7.3,0,0,1-2.49,4.628A7.183,7.183,0,0,1,44.343,60.162ZM38.265,47.049a.908.908,0,0,0-1,.882l-.426,3.195a.816.816,0,0,0,.133.664.8.8,0,0,0,.63.218H40.47c.51,0,.809-.3.889-.882l.424-3.195a.857.857,0,0,0-.128-.691.665.665,0,0,0-.525-.191Z" transform="translate(0 1.151)"/>
      </g>
    </g>
    <path id="Fill_4" data-name="Fill 4" d="M83.543,102.694a17.88,17.88,0,0,1-9.492-2.783,26.041,26.041,0,0,1-7.787-8.125,54.933,54.933,0,0,1-5.565-12.2,90.152,90.152,0,0,1-3.424-15.454.815.815,0,0,0-.887-.772H32.146a.855.855,0,0,0-.984.772L29.108,79.555a.8.8,0,0,0,.109.635.5.5,0,0,0,.395.148,1.19,1.19,0,0,0,.164-.012c3.024-.29,9.642-.995,19.671-2.094a3.469,3.469,0,0,1,.787-.11,4.819,4.819,0,0,1,3.65,1.543,4.978,4.978,0,0,1,1.522,4.3l-.316,3.195a7.315,7.315,0,0,1-1.179,3.47,9.192,9.192,0,0,1-2.61,2.645,7.753,7.753,0,0,1-3.365,1.267c-11.861,1.619-25.508,3.324-40.563,5.068a5.462,5.462,0,0,1-4.782-1.323A5.532,5.532,0,0,1,.3,93.989L.005,89.582a7.271,7.271,0,0,1,.052-1.212,6.2,6.2,0,0,1,1.667-3.415A6.5,6.5,0,0,1,6.218,82.64l1.335-.094,3.339-.237a1.053,1.053,0,0,0,1.012-.992L21.869,6.5a7.286,7.286,0,0,1,2.538-4.574A7.161,7.161,0,0,1,29.236,0H99.423a5.477,5.477,0,0,1,4.317,1.928A5.587,5.587,0,0,1,105.06,6.5l-3.493,26.222A7.293,7.293,0,0,1,99.03,37.3a7.169,7.169,0,0,1-4.83,1.928H73.925c-.512,0-.774.3-.778.882-.064,2.1-.056,4.549.023,7.273,0,.512.3.771.887.771h26.777a5.472,5.472,0,0,1,4.315,1.928,5.582,5.582,0,0,1,1.32,4.572l-.294,2.2a7.288,7.288,0,0,1-2.537,4.574,7.17,7.17,0,0,1-4.829,1.927H75.56a.789.789,0,0,0-.587.276c-.171.182-.231.349-.176.5a61.176,61.176,0,0,0,5.157,15.866,17.872,17.872,0,0,0,3.273,4.794,4.921,4.921,0,0,0,3.37,1.6h.11c1.169,0,2.226-1.261,3.144-3.747A40.266,40.266,0,0,0,91.508,76.8a4.1,4.1,0,0,1,2.476-2.865,4.2,4.2,0,0,1,1.588-.332,3.177,3.177,0,0,1,1.894.662,31.422,31.422,0,0,0,2.754,1.652,8.584,8.584,0,0,1,3.688,3.747,6.976,6.976,0,0,1,.589,3.857,7.952,7.952,0,0,1-.271,1.212c-1.925,6.215-4.181,10.627-6.705,13.112a15.86,15.86,0,0,1-5.967,3.635A24.5,24.5,0,0,1,83.543,102.694ZM35.249,39.226c-.512,0-.81.3-.887.882l-.969,7.273a.678.678,0,0,0,.121.554.845.845,0,0,0,.658.217H55.328c.511,0,.773-.3.779-.882-.036-2.486.025-4.9.181-7.162a.772.772,0,0,0-.873-.882Zm3.31-24.02a.908.908,0,0,0-1,.882l-.969,7.273a.674.674,0,0,0,.119.552.845.845,0,0,0,.659.217H85.192a.856.856,0,0,0,.984-.769l.969-7.273a.817.817,0,0,0-.135-.664.8.8,0,0,0-.629-.218Z" transform="translate(113.601 6.472)"/>
    <path id="Fill_6" data-name="Fill 6" d="M56.831,106.22H52.977a5.523,5.523,0,0,1-4.379-1.873,5.634,5.634,0,0,1-1.256-4.629l2.1-15.755a.814.814,0,0,0-.133-.663.8.8,0,0,0-.632-.219H5.7a5.52,5.52,0,0,1-4.379-1.874A5.628,5.628,0,0,1,.068,76.579l.366-2.754a7.379,7.379,0,0,1,2.482-4.573A7.1,7.1,0,0,1,7.8,67.324H17.938a.909.909,0,0,0,1-.881l3.171-23.8c.02-.146-.023-.239-.128-.276a.313.313,0,0,0-.1-.018.273.273,0,0,0-.183.073,6.01,6.01,0,0,1-4,1.873h-.33a5.189,5.189,0,0,1-3.57-1.323,45.88,45.88,0,0,0-4.158-3.525,4.7,4.7,0,0,1-1.6-4.519,6.207,6.207,0,0,1,2.042-3.745A91.417,91.417,0,0,0,20.57,19.228,112.9,112.9,0,0,0,29.58,4.738,8.9,8.9,0,0,1,33.511.881,7.252,7.252,0,0,1,36.931,0a6.909,6.909,0,0,1,1.734.221l4.04,1.1A4.748,4.748,0,0,1,46.057,4.3a4.886,4.886,0,0,1,.324,2.534,6.567,6.567,0,0,1-.735,2.2c-.185.293-.378.626-.573.992a.564.564,0,0,0-.017.551.5.5,0,0,0,.466.221h54.873a5.474,5.474,0,0,1,4.316,1.93,5.58,5.58,0,0,1,1.32,4.572l-.367,2.754a7.652,7.652,0,0,1-7.367,6.5H74.826a.909.909,0,0,0-1,.881L72.52,37.244a.813.813,0,0,0,.133.662.8.8,0,0,0,.632.219H94A5.529,5.529,0,0,1,98.378,40a5.641,5.641,0,0,1,1.256,4.63l-.293,2.2A7.378,7.378,0,0,1,96.859,51.4a7.1,7.1,0,0,1-4.884,1.928H71.259a.909.909,0,0,0-1,.881L68.631,66.442a.814.814,0,0,0,.133.662.8.8,0,0,0,.632.219H99.477a5.43,5.43,0,0,1,4.37,1.929,5.676,5.676,0,0,1,1.265,4.573l-.366,2.754a7.305,7.305,0,0,1-2.489,4.628,7.185,7.185,0,0,1-4.878,1.874H67.3a.91.91,0,0,0-1,.882L64.2,99.718a7.314,7.314,0,0,1-2.489,4.629A7.192,7.192,0,0,1,56.831,106.22ZM37.983,53.33a.909.909,0,0,0-1,.881L35.356,66.442a.815.815,0,0,0,.133.663.8.8,0,0,0,.631.218H50.774a.912.912,0,0,0,1-.881L53.4,54.211a.816.816,0,0,0-.135-.663.8.8,0,0,0-.63-.218ZM35.489,26.555a1.584,1.584,0,0,0-1.315.771c-2.33,3.278-5.008,6.688-7.96,10.137-.169.147-.225.292-.171.441s.193.221.413.221H54.662a.911.911,0,0,0,1-.881l1.306-9.807a.816.816,0,0,0-.135-.663.8.8,0,0,0-.63-.218Z" transform="translate(227.738 5.26)"/>
    <g id="Group_10" data-name="Group 10" transform="translate(342.941 1.275)">
      <path id="Clip_9-2" data-name="Clip 9" d="M0,0H107.656V104.786H0Z" transform="translate(1.027 0.019)" fill="none"/>
      <g id="Group_10-2" data-name="Group 10" clip-path="url(#clip-path-2)">
        <path id="Fill_8" data-name="Fill 8" d="M88.225,104.787H5.7a5.466,5.466,0,0,1-4.315-1.928,5.574,5.574,0,0,1-1.32-4.572L.194,97.3a7.273,7.273,0,0,1,2.538-4.573,7.158,7.158,0,0,1,4.829-1.929H20.343a.664.664,0,0,0,.524-.22.613.613,0,0,0,.13-.553,62.238,62.238,0,0,0-3.432-9.805,5.182,5.182,0,0,1-.39-2.866,5.468,5.468,0,0,1,.565-1.762,6.008,6.008,0,0,1,3.525-3.307l1.631-.66a.383.383,0,0,0,.14-.221.073.073,0,0,0-.017-.06.258.258,0,0,0-.189-.05H16.108a5.466,5.466,0,0,1-4.315-1.928,5.567,5.567,0,0,1-1.319-4.573l.132-.992a7.274,7.274,0,0,1,2.538-4.573A7.159,7.159,0,0,1,17.973,57.3h24.9a.856.856,0,0,0,.985-.771l1-7.493a.674.674,0,0,0-.12-.553.846.846,0,0,0-.66-.219h-14.1A3.74,3.74,0,0,1,27,46.994a3.817,3.817,0,0,1-.849-3.139c.011-.073-.035-.148-.136-.221a.248.248,0,0,0-.145-.055.193.193,0,0,0-.131.055c-3.06,1.985-6.641,4.1-10.643,6.282a6.861,6.861,0,0,1-3.2.879,4.677,4.677,0,0,1-1.719-.329A6.274,6.274,0,0,1,6.371,47.6c-.59-1.016-1.267-2.055-2.012-3.087a4.34,4.34,0,0,1-.787-3.194,4.294,4.294,0,0,1,.242-.992A5.608,5.608,0,0,1,6.708,36.8,131.026,131.026,0,0,0,29.294,21.928,132,132,0,0,0,46.811,5.4a16.546,16.546,0,0,1,5.057-4.049A12.9,12.9,0,0,1,57.667,0h4.188a11.635,11.635,0,0,1,5.557,1.3,11.349,11.349,0,0,1,4.11,3.884A93.04,93.04,0,0,0,87.076,23.25a82.342,82.342,0,0,0,18.366,12.671,3.936,3.936,0,0,1,2.2,3.3,6.272,6.272,0,0,1-.052,1.213,5.569,5.569,0,0,1-1.5,2.975c-1.184,1.3-2.415,2.744-3.659,4.3a8.275,8.275,0,0,1-4.583,2.974,7.169,7.169,0,0,1-1.682.221,5.95,5.95,0,0,1-3.188-.881c-3.23-2.122-6.377-4.384-9.354-6.722a.149.149,0,0,0-.116-.054.326.326,0,0,0-.16.054c-.119.074-.184.148-.193.22a5.318,5.318,0,0,1-1.826,3.361A5.235,5.235,0,0,1,77.8,48.262H63.25a.8.8,0,0,0-.873.771l-1,7.493a.715.715,0,0,0,.117.581.7.7,0,0,0,.551.19H87.389a5.472,5.472,0,0,1,4.316,1.929A5.579,5.579,0,0,1,93.024,63.8l-.132.992a7.279,7.279,0,0,1-2.537,4.573,7.164,7.164,0,0,1-4.828,1.928H77.372c-.145,0-.226.038-.235.11a.1.1,0,0,0,.016.084.1.1,0,0,0,.078.027L81.1,73.054a3.885,3.885,0,0,1,2.674,3.084,5.5,5.5,0,0,1,.014,1.543,5.6,5.6,0,0,1-1.247,2.754c-4.406,5.113-7.251,8.376-8.454,9.7a.48.48,0,0,0-.059.442.3.3,0,0,0,.3.22H90.09a5.477,5.477,0,0,1,4.316,1.929A5.586,5.586,0,0,1,95.725,97.3l-.132.992a7.284,7.284,0,0,1-2.537,4.572A7.166,7.166,0,0,1,88.225,104.787Zm-28.042-33.5c-.511,0-.81.3-.889.881l-2.377,17.85a.715.715,0,0,0,.117.581.7.7,0,0,0,.55.191h6.721a.21.21,0,0,0,.18-.11.173.173,0,0,0-.025-.221A3.86,3.86,0,0,1,62.1,87.487a5.409,5.409,0,0,1-.016-1.541,5.3,5.3,0,0,1,1.11-2.534,116.877,116.877,0,0,0,7.462-11.351.569.569,0,0,0,.018-.55.408.408,0,0,0-.356-.22Zm-29.31,0a.511.511,0,0,0-.47.22.485.485,0,0,0-.059.442,81.349,81.349,0,0,1,4.607,9.254,5.5,5.5,0,0,1,.309,2.644,6.84,6.84,0,0,1-.749,2.314A8.213,8.213,0,0,1,30.39,89.8l-1.519.662h0c-.074,0-.117.054-.132.166a.137.137,0,0,0,.026.112.223.223,0,0,0,.172.053h9.475a.858.858,0,0,0,.986-.772l2.377-17.85a.812.812,0,0,0-.133-.662.8.8,0,0,0-.632-.219ZM58.235,16.417c-.147,0-.31.111-.485.331A133.952,133.952,0,0,1,39.874,33.5a.239.239,0,0,0-.153.329.294.294,0,0,0,.3.22H72.2a.414.414,0,0,0,.36-.221.261.261,0,0,0,.051-.2.215.215,0,0,0-.117-.128A97.665,97.665,0,0,1,58.633,16.748C58.516,16.529,58.382,16.417,58.235,16.417Z" transform="translate(1.027 0.018)"/>
      </g>
    </g>
    <path id="Fill_11" data-name="Fill 11" d="M11.115,93.87A4.829,4.829,0,0,1,7.3,92.2a4.916,4.916,0,0,1-1.136-4.038L12.394,41.37a.2.2,0,0,0-.165-.246.466.466,0,0,0-.12-.017.265.265,0,0,0-.182.066c-1.475,1.593-3.012,3.184-4.569,4.728a4,4,0,0,1-2.817,1.183H3.853A3.273,3.273,0,0,1,1.2,44.818c-.254-.685-.494-1.3-.736-1.873A7.777,7.777,0,0,1,.076,39.2q.045-.337.086-.642l.059-.442a9.171,9.171,0,0,1,2.561-4.432,123.652,123.652,0,0,0,11.685-13.05A139.478,139.478,0,0,0,24.656,5.515a7.426,7.426,0,0,1,3.586-3.249,6.842,6.842,0,0,1,2.737-.591,6.171,6.171,0,0,1,1.832.3h.1a4.222,4.222,0,0,1,2.772,2.856,4.958,4.958,0,0,1,.2,2.168A6.949,6.949,0,0,1,35.2,9.161c-2.794,4.774-5.685,9.314-8.594,13.495a3.4,3.4,0,0,0-.479,1.379L17.589,88.157A6.4,6.4,0,0,1,15.376,92.2,6.306,6.306,0,0,1,11.115,93.87Zm19.831-.985H30.06a8.645,8.645,0,0,1-4.479-1.871,7.332,7.332,0,0,0-1.162-.888,2.7,2.7,0,0,1-.94-2.56,3.618,3.618,0,0,1,2.167-2.956A79.7,79.7,0,0,0,36.689,78.6a12.085,12.085,0,0,1,6.941-2.56,8.342,8.342,0,0,1,3.074.59l1.312.493a2.846,2.846,0,0,1,2.011,2.66,3.271,3.271,0,0,1-.006.788,3.611,3.611,0,0,1-1.51,2.462A100.8,100.8,0,0,1,35.03,91.8,8.6,8.6,0,0,1,30.946,92.885Zm46.629-.3a4.411,4.411,0,0,1-.873-.1,6.774,6.774,0,0,1-4.281-1.871c-2.38-2.218-5.273-4.637-8.6-7.19a2.976,2.976,0,0,1-1.183-2.956,3.923,3.923,0,0,1,2.291-3.151l.112-.1a10.675,10.675,0,0,1,5-1.281h.2a9.226,9.226,0,0,1,4.827,1.478c3.475,2.5,6.546,4.818,9.128,6.895a3.288,3.288,0,0,1,1.071,3.053,4.541,4.541,0,0,1-2.542,3.546l-1.064.591A8.582,8.582,0,0,1,77.575,92.59Zm-.238-18.913H35.671a4.967,4.967,0,0,1-5.037-5.811L35.829,28.86A6.507,6.507,0,0,1,38.1,24.773a6.4,6.4,0,0,1,4.317-1.724h13.2a.766.766,0,0,0,.88-.69L58.7,5.812a6.534,6.534,0,0,1,2.225-4.137A6.426,6.426,0,0,1,65.282,0h.492a4.966,4.966,0,0,1,5.037,5.812l-.065.491a.638.638,0,0,0,.1.52.627.627,0,0,0,.493.171h19.7A4.307,4.307,0,0,1,94.436,8.52a4.4,4.4,0,0,1,1.048,3.6,5.732,5.732,0,0,1-2.005,3.595,5.643,5.643,0,0,1-3.8,1.528h-19.7a.711.711,0,0,0-.782.689l-.591,4.432a.638.638,0,0,0,.1.519.63.63,0,0,0,.494.171H84.081a4.894,4.894,0,0,1,3.856,1.724,4.989,4.989,0,0,1,1.18,4.087l-5.2,39.006a6.841,6.841,0,0,1-6.584,5.811ZM44.061,59.494a.713.713,0,0,0-.782.69l-.537,4.038a.64.64,0,0,0,.105.52.627.627,0,0,0,.491.17H71.412c.523,0,.819-.232.878-.689l.537-4.038a.6.6,0,0,0-.107-.5.753.753,0,0,0-.588-.195ZM45.9,45.7a.711.711,0,0,0-.78.689l-.511,3.842a.767.767,0,0,0,.115.618.6.6,0,0,0,.469.17H73.262a.813.813,0,0,0,.893-.787l.511-3.842a.6.6,0,0,0-.108-.494.753.753,0,0,0-.587-.194Zm1.836-13.791c-.456,0-.723.265-.793.788l-.524,3.939a.768.768,0,0,0,.115.619.594.594,0,0,0,.468.17H75.072a.812.812,0,0,0,.893-.788l.525-3.939a.73.73,0,0,0-.121-.594.716.716,0,0,0-.562-.195Z" transform="translate(2.367 125.815)"/>
    <g id="Group_15" data-name="Group 15" transform="translate(201.882 126.804)">
      <path id="Clip_14-2" data-name="Clip 14" d="M0,0H98V92.687H0Z" transform="translate(0.452 0.49)" fill="none"/>
      <g id="Group_15-2" data-name="Group 15" clip-path="url(#clip-path-3)">
        <path id="Fill_13" data-name="Fill 13" d="M4.528,92.687A4.36,4.36,0,0,1,1.086,91.16,4.505,4.505,0,0,1,.051,87.466l10.5-78.8a6.528,6.528,0,0,1,2.226-4.136,6.421,6.421,0,0,1,4.36-1.675H32.992a.944.944,0,0,0,.408-.1,3.983,3.983,0,0,1,.991-.131,3.408,3.408,0,0,1,1.811.525l2.366,1.478a4.4,4.4,0,0,1,2.081,2.857,5.345,5.345,0,0,1,.119,2.068,8.368,8.368,0,0,1-.42,1.674c-4.478,10.112-7.9,17.635-10.169,22.36a1.124,1.124,0,0,0,.027,1.281,29.714,29.714,0,0,1,3.861,9.087,28.551,28.551,0,0,1,.527,9.727.458.458,0,0,0,.139.443.389.389,0,0,0,.259.089.734.734,0,0,0,.227-.041,93.845,93.845,0,0,0,18.425-11.13.819.819,0,0,0,.242-1.084c-.537-.842-1.122-1.67-1.741-2.461a.734.734,0,0,0-.614-.354,1.176,1.176,0,0,0-.541.158c-2.3,1.506-4.672,2.93-7.065,4.235a6.466,6.466,0,0,1-3.059.787,4.437,4.437,0,0,1-1.255-.2,5.742,5.742,0,0,1-3.526-2.364,3.558,3.558,0,0,1-.545-2.561,5.019,5.019,0,0,1,.215-.887A4.7,4.7,0,0,1,38.3,35.459,95.287,95.287,0,0,0,55.427,25.214a.273.273,0,0,0,.186-.3.2.2,0,0,0-.219-.2H43.87A4.414,4.414,0,0,1,40.379,23.2,4.5,4.5,0,0,1,39.344,19.5a5.863,5.863,0,0,1,2.018-3.694,5.763,5.763,0,0,1,3.9-1.525h5.712a.591.591,0,0,0,.47-.2.546.546,0,0,0,.115-.492,57.306,57.306,0,0,0-1.879-6.6,4.679,4.679,0,0,1-.216-2.068,5.77,5.77,0,0,1,.518-1.674A4.985,4.985,0,0,1,52.968.788a5.87,5.87,0,0,1,4.235,0,4.551,4.551,0,0,1,2.785,2.756A47.5,47.5,0,0,1,62.5,11.326a2.232,2.232,0,0,1-.377,1.724,2.741,2.741,0,0,1-1.48,1.133.093.093,0,0,0,.016.075.089.089,0,0,0,.07.024H76.976A1.6,1.6,0,0,1,75.9,13.1a2.065,2.065,0,0,1,.272-1.676A81.555,81.555,0,0,0,80.41,4.037a7.434,7.434,0,0,1,3.5-3.349A6.731,6.731,0,0,1,86.758,0a6.552,6.552,0,0,1,1.648.2l.283.1a3.708,3.708,0,0,1,2.7,2.658,5.091,5.091,0,0,1,.132,1.971,5.09,5.09,0,0,1-.881,2.168c-1.815,2.867-3.27,5.088-4.326,6.6-.149.133-.182.262-.1.393a.36.36,0,0,0,.318.2h6.895a4.413,4.413,0,0,1,3.49,1.525A4.5,4.5,0,0,1,97.952,19.5,5.856,5.856,0,0,1,95.933,23.2a5.763,5.763,0,0,1-3.9,1.527H78.049a.744.744,0,0,0-.587.2.592.592,0,0,0-.1.494c.271,4.844.737,9.549,1.387,13.986a.383.383,0,0,0,.3.346.75.75,0,0,0,.155.017.689.689,0,0,0,.294-.066c2.476-2.013,4.834-4.035,7.006-6.008a5.866,5.866,0,0,1,3.953-1.577h.1a4.2,4.2,0,0,1,3.434,1.577A4.321,4.321,0,0,1,95,37.232a5.7,5.7,0,0,1-2.3,3.94c-4.139,3.133-7.91,5.818-11.209,7.978a1.028,1.028,0,0,0-.452,1.182c2.12,8.1,5.091,14.663,8.829,19.5a5.267,5.267,0,0,1,.946,3.989,6.748,6.748,0,0,1-2.009,3.99,4.237,4.237,0,0,1-.459.491,6.6,6.6,0,0,1-4.1,1.97h-.4A3.716,3.716,0,0,1,80.71,78.7a49.8,49.8,0,0,1-5.656-10.243,82.129,82.129,0,0,1-4.127-13.2,53.455,53.455,0,0,1,.094,14.085,42.878,42.878,0,0,1-1.153,5.712,34.529,34.529,0,0,1-2.99,7.831,17.3,17.3,0,0,1-4.161,5.172A15.524,15.524,0,0,1,57.383,91.5a21.384,21.384,0,0,1-6.6,1.083h-1.38a4.83,4.83,0,0,1-3.816-1.673,7.6,7.6,0,0,1-1.9-4.235,3.286,3.286,0,0,1-.053-1.084,4.363,4.363,0,0,1,1.09-2.265,3.652,3.652,0,0,1,2.956-1.478h.2c.77.066,1.528.1,2.254.1a5.863,5.863,0,0,0,3.257-.788A10.352,10.352,0,0,0,57,77.026a25.416,25.416,0,0,0,2.659-8.864q.04-.308.085-.642l0-.016q.04-.3.082-.624c.018-.129-.051-.229-.2-.3a.381.381,0,0,0-.145-.033.245.245,0,0,0-.213.13A134.252,134.252,0,0,1,35.8,82.345a6.3,6.3,0,0,1-2.962.787,5.713,5.713,0,0,1-1.451-.2,5.369,5.369,0,0,1-3.429-2.364,3.535,3.535,0,0,1-.645-2.56l.033-.243c.025-.182.049-.364.072-.545a4.635,4.635,0,0,1,2.535-2.758,104.3,104.3,0,0,0,15.479-8.619A92.163,92.163,0,0,0,58.6,55.356a1.252,1.252,0,0,0,.367-1.282,28,28,0,0,0-.762-3.151c-.117-.267-.265-.4-.44-.4a.677.677,0,0,0-.421.2A148.42,148.42,0,0,1,42.278,61.069a6.521,6.521,0,0,1-3.172.885,4.393,4.393,0,0,1-1.255-.2A5.619,5.619,0,0,1,34.241,59.3a.25.25,0,0,1-.072-.2.393.393,0,0,0-.3-.157.343.343,0,0,0-.079.01.274.274,0,0,0-.23.246c-1.119,3.988-2.881,6.771-5.237,8.274a17.629,17.629,0,0,1-6.2,2.167,6.91,6.91,0,0,0-1.1.1h-.493a4.189,4.189,0,0,1-3.165-1.379,6.251,6.251,0,0,1-1.765-3.744,6.012,6.012,0,0,1,.031-.985,4.724,4.724,0,0,1,.992-2.264,5.1,5.1,0,0,1,3.094-1.775A5.11,5.11,0,0,0,21.8,58.8c1.076-.718,1.824-2.607,2.225-5.615a23.849,23.849,0,0,0-1.826-12.9,13.247,13.247,0,0,1-1.209-7.191,13.934,13.934,0,0,1,.815-3.153c1.616-3.879,3.647-9.181,6.038-15.759a.577.577,0,0,0,.036-.53.494.494,0,0,0-.436-.159h-6.4a.812.812,0,0,0-.893.788L10.4,87.466A5.868,5.868,0,0,1,8.376,91.16,5.712,5.712,0,0,1,4.528,92.687ZM67.341,27.126a.306.306,0,0,0-.271.157,78.078,78.078,0,0,1-6.088,5.023.768.768,0,0,0-.364.526.6.6,0,0,0,.232.46,39.8,39.8,0,0,1,5.517,7.953,46.119,46.119,0,0,1,3.686,9.48,184.1,184.1,0,0,1-2.418-23.245c.027-.195-.041-.31-.2-.344a.443.443,0,0,0-.093-.01Z" transform="translate(0.452 0.49)"/>
      </g>
    </g>
    <path id="Fill_16" data-name="Fill 16" d="M91.562,16.922A3.762,3.762,0,0,1,89.4,19.269a8.575,8.575,0,0,1-4.1.991H60.1a.611.611,0,0,0-.352.113c-.11.078-.116.17-.016.283A52.67,52.67,0,0,0,72.189,32.995a70.337,70.337,0,0,0,13.478,7.7q1.535.679,1.554,1.869l-.074.339a2.809,2.809,0,0,1-1.6,1.755q-.866.509-1.724,1.018a8.318,8.318,0,0,1-3.954,1.359,5.674,5.674,0,0,1-1.055.113,6.4,6.4,0,0,1-2.861-.622A66.364,66.364,0,0,1,53.46,28.3a.293.293,0,0,0-.228-.028.191.191,0,0,0-.173.141L48.131,50.766a3.766,3.766,0,0,1-2.157,2.348,8.59,8.59,0,0,1-4.1.991H40.651a6.281,6.281,0,0,1-3.669-.991,2.183,2.183,0,0,1-1.122-2.348l4.879-22.128c.008-.039-.032-.066-.123-.085a.34.34,0,0,0-.239.028A117.507,117.507,0,0,1,9.757,46.8a9.009,9.009,0,0,1-3.229.624,4.808,4.808,0,0,1-1-.114,6.172,6.172,0,0,1-3.46-1.3Q1.506,45.559.87,45.05a1.627,1.627,0,0,1-.831-1.755.862.862,0,0,1,.168-.34A3.578,3.578,0,0,1,2.6,41.031a112.613,112.613,0,0,0,16.791-7.754A97.916,97.916,0,0,0,37.16,20.657c.149-.114.185-.206.109-.283a.561.561,0,0,0-.4-.113H12.424a6.273,6.273,0,0,1-3.67-.991,2.182,2.182,0,0,1-1.121-2.348l.038-.17A3.766,3.766,0,0,1,9.827,14.4a8.609,8.609,0,0,1,4.106-.99H43.44c.436,0,.685-.131.743-.4l2.134-9.677A3.763,3.763,0,0,1,48.474.99a8.585,8.585,0,0,1,4.1-.99H53.8a6.285,6.285,0,0,1,3.67.99,2.189,2.189,0,0,1,1.122,2.349l-2.134,9.677c-.058.265.162.4.661.4H86.81a6.291,6.291,0,0,1,3.669.99,2.186,2.186,0,0,1,1.121,2.35Z" transform="translate(108.472 123.062)"/>
    <path id="Stroke_18" data-name="Stroke 18" d="M91.562,16.922A3.762,3.762,0,0,1,89.4,19.269a8.575,8.575,0,0,1-4.1.991H60.1a.611.611,0,0,0-.352.113c-.11.078-.116.17-.016.283A52.67,52.67,0,0,0,72.189,32.995a70.337,70.337,0,0,0,13.478,7.7q1.535.679,1.554,1.869l-.074.339a2.809,2.809,0,0,1-1.6,1.755q-.866.509-1.724,1.018a8.318,8.318,0,0,1-3.954,1.359,5.674,5.674,0,0,1-1.055.113,6.4,6.4,0,0,1-2.861-.622A66.364,66.364,0,0,1,53.46,28.3a.293.293,0,0,0-.228-.028.191.191,0,0,0-.173.141L48.131,50.766a3.766,3.766,0,0,1-2.157,2.348,8.59,8.59,0,0,1-4.1.991H40.651a6.281,6.281,0,0,1-3.669-.991,2.183,2.183,0,0,1-1.122-2.348l4.879-22.128c.008-.039-.032-.066-.123-.085a.34.34,0,0,0-.239.028A117.507,117.507,0,0,1,9.757,46.8a9.009,9.009,0,0,1-3.229.624,4.808,4.808,0,0,1-1-.114,6.172,6.172,0,0,1-3.46-1.3Q1.506,45.559.87,45.05a1.627,1.627,0,0,1-.831-1.755.862.862,0,0,1,.168-.34A3.578,3.578,0,0,1,2.6,41.031a112.613,112.613,0,0,0,16.791-7.754A97.916,97.916,0,0,0,37.16,20.657c.149-.114.185-.206.109-.283a.561.561,0,0,0-.4-.113H12.424a6.273,6.273,0,0,1-3.67-.991,2.182,2.182,0,0,1-1.121-2.348l.038-.17A3.766,3.766,0,0,1,9.827,14.4a8.609,8.609,0,0,1,4.106-.99H43.44c.436,0,.685-.131.743-.4l2.134-9.677A3.763,3.763,0,0,1,48.474.99a8.585,8.585,0,0,1,4.1-.99H53.8a6.285,6.285,0,0,1,3.67.99,2.189,2.189,0,0,1,1.122,2.349l-2.134,9.677c-.058.265.162.4.661.4H86.81a6.291,6.291,0,0,1,3.669.99,2.186,2.186,0,0,1,1.121,2.35Z" transform="translate(108.472 123.062)" fill="none" stroke="#000" stroke-miterlimit="10" stroke-width="1"/>
    <path id="Fill_20" data-name="Fill 20" d="M76.069,44.515H4.7A6.4,6.4,0,0,1,1.14,43.61,1.972,1.972,0,0,1,.05,41.458l.026-.105A3.538,3.538,0,0,1,2.169,39.2,8.782,8.782,0,0,1,6.154,38.3H77.522a6.4,6.4,0,0,1,3.56.906,1.973,1.973,0,0,1,1.088,2.15l-.024.105a3.541,3.541,0,0,1-2.094,2.151A8.789,8.789,0,0,1,76.069,44.515Zm-8.5-11.867H19.111a6.389,6.389,0,0,1-3.561-.907,1.969,1.969,0,0,1-1.089-2.151l6.2-26.534a3.5,3.5,0,0,1,2.1-2.175A8.946,8.946,0,0,1,26.74,0H75.2a6.588,6.588,0,0,1,3.568.881,1.953,1.953,0,0,1,1.082,2.175l-6.2,26.534a3.543,3.543,0,0,1-2.094,2.151A8.769,8.769,0,0,1,67.568,32.648ZM28.587,19.329c-.483,0-.756.122-.811.364l-1.5,6.425a.28.28,0,0,0,.039.25c.086.109.284.164.589.164H62.087c.483,0,.76-.139.824-.414l1.5-6.425a.23.23,0,0,0-.036-.2c-.084-.105-.288-.159-.607-.159ZM31.675,6.115c-.481,0-.754.122-.812.363L29.385,12.8a.282.282,0,0,0,.041.25c.086.109.285.164.59.164H65.2c.49,0,.759-.135.824-.414L67.5,6.477a.23.23,0,0,0-.036-.2c-.084-.106-.289-.159-.608-.159Z" transform="translate(101.024 174.411)"/>
    <path id="Stroke_22" data-name="Stroke 22" d="M76.069,44.515H4.7A6.4,6.4,0,0,1,1.14,43.61,1.972,1.972,0,0,1,.05,41.458l.026-.105A3.538,3.538,0,0,1,2.169,39.2,8.782,8.782,0,0,1,6.154,38.3H77.522a6.4,6.4,0,0,1,3.56.906,1.973,1.973,0,0,1,1.088,2.15l-.024.105a3.541,3.541,0,0,1-2.094,2.151A8.789,8.789,0,0,1,76.069,44.515Zm-8.5-11.867H19.111a6.389,6.389,0,0,1-3.561-.907,1.969,1.969,0,0,1-1.089-2.151l6.2-26.534a3.5,3.5,0,0,1,2.1-2.175A8.946,8.946,0,0,1,26.74,0H75.2a6.588,6.588,0,0,1,3.568.881,1.953,1.953,0,0,1,1.082,2.175l-6.2,26.534a3.543,3.543,0,0,1-2.094,2.151A8.769,8.769,0,0,1,67.568,32.648ZM28.587,19.329c-.483,0-.756.122-.811.364l-1.5,6.425a.28.28,0,0,0,.039.25c.086.109.284.164.589.164H62.087c.483,0,.76-.139.824-.414l1.5-6.425a.23.23,0,0,0-.036-.2c-.084-.105-.288-.159-.607-.159ZM31.675,6.115c-.481,0-.754.122-.812.363L29.385,12.8a.282.282,0,0,0,.041.25c.086.109.285.164.59.164H65.2c.49,0,.759-.135.824-.414L67.5,6.477a.23.23,0,0,0-.036-.2c-.084-.106-.289-.159-.608-.159Z" transform="translate(101.024 174.411)" fill="none" stroke="#000" stroke-miterlimit="10" stroke-width="1"/>
  </g>
</svg>
